<?xml version="1.0" encoding="UTF-8" standalone="no"?>
<!DOCTYPE svg PUBLIC "-//W3C//DTD SVG 20010904//EN"
              "http://www.w3.org/TR/2001/REC-SVG-20010904/DTD/svg10.dtd">

<svg xmlns="http://www.w3.org/2000/svg"
     width="8.88889in" height="5.55556in"
     viewBox="100 80 640 400">
  <path id="Selection"
        fill="white" stroke="white" stroke-width="1"
        d="M 640.00,0.00
           C 640.00,0.00 640.00,62.00 640.00,62.00
             640.00,62.00 403.00,62.00 403.00,62.00
             391.74,62.02 388.94,66.31 380.00,72.71
             380.00,72.71 345.00,98.12 345.00,98.12
             345.00,98.12 249.00,167.42 249.00,167.42
             249.00,167.42 219.00,189.15 219.00,189.15
             213.60,193.09 207.12,198.62 201.00,201.00
             199.46,198.71 195.46,193.95 196.32,191.17
             197.11,188.62 204.61,183.70 207.00,182.00
             207.00,182.00 236.00,161.00 236.00,161.00
             236.00,161.00 373.00,62.00 373.00,62.00
             373.00,62.00 0.00,62.00 0.00,62.00
             0.00,62.00 0.00,0.00 0.00,0.00
             0.00,0.00 640.00,0.00 640.00,0.00 Z
           M 630.00,172.00
           C 630.00,172.00 630.00,188.00 630.00,188.00
             630.00,188.00 615.00,188.00 615.00,188.00
             615.00,188.00 615.00,172.00 615.00,172.00
             615.00,172.00 630.00,172.00 630.00,172.00 Z
           M 389.00,336.00
           C 400.28,335.98 403.13,331.32 412.00,325.00
             412.00,325.00 447.00,299.71 447.00,299.71
             447.00,299.71 551.00,224.58 551.00,224.58
             551.00,224.58 581.00,202.85 581.00,202.85
             586.40,198.91 592.88,193.38 599.00,191.00
             600.54,193.29 604.54,198.05 603.68,200.83
             602.86,203.47 594.52,208.91 592.00,210.71
             592.00,210.71 562.00,232.42 562.00,232.42
             562.00,232.42 466.00,301.85 466.00,301.85
             466.00,301.85 419.00,336.00 419.00,336.00
             419.00,336.00 640.00,336.00 640.00,336.00
             640.00,336.00 640.00,400.00 640.00,400.00
             640.00,400.00 0.00,400.00 0.00,400.00
             0.00,400.00 0.00,336.00 0.00,336.00
             0.00,336.00 389.00,336.00 389.00,336.00 Z
           M 187.00,200.00
           C 187.00,200.00 187.00,216.00 187.00,216.00
             187.00,216.00 172.00,216.00 172.00,216.00
             172.00,216.00 172.00,200.00 172.00,200.00
             172.00,200.00 187.00,200.00 187.00,200.00 Z
           M 163.00,223.00
           C 163.00,223.00 163.00,239.00 163.00,239.00
             163.00,239.00 148.00,239.00 148.00,239.00
             148.00,239.00 148.00,223.00 148.00,223.00
             148.00,223.00 163.00,223.00 163.00,223.00 Z
           M 140.00,245.00
           C 140.00,245.00 140.00,261.00 140.00,261.00
             140.00,261.00 125.00,261.00 125.00,261.00
             125.00,261.00 125.00,245.00 125.00,245.00
             125.00,245.00 140.00,245.00 140.00,245.00 Z" />
</svg>
