<?xml version="1.0" encoding="UTF-8" standalone="no"?>
<!DOCTYPE svg PUBLIC "-//W3C//DTD SVG 20010904//EN"
              "http://www.w3.org/TR/2001/REC-SVG-20010904/DTD/svg10.dtd">

<svg xmlns="http://www.w3.org/2000/svg"
     width="8.88889in" height="5.55556in"
     viewBox="100 80 640 400">
  <path id="Selection"
        fill="white" stroke="white" stroke-width="1" opacity="0.1"
        d="M 388.00,6.00
           C 388.00,6.00 388.00,192.00 388.00,192.00
             388.00,192.00 188.00,192.00 188.00,192.00
             188.00,192.00 188.00,6.00 188.00,6.00
             188.00,6.00 388.00,6.00 388.00,6.00 Z
           M 610.00,6.00
           C 610.00,6.00 610.00,192.00 610.00,192.00
             610.00,192.00 410.00,192.00 410.00,192.00
             410.00,192.00 410.00,6.00 410.00,6.00
             410.00,6.00 610.00,6.00 610.00,6.00 Z
           M 389.00,201.00
           C 389.00,201.00 389.00,387.00 389.00,387.00
             389.00,387.00 189.00,387.00 189.00,387.00
             189.00,387.00 189.00,201.00 189.00,201.00
             189.00,201.00 389.00,201.00 389.00,201.00 Z
           M 610.00,201.00
           C 610.00,201.00 610.00,387.00 610.00,387.00
             610.00,387.00 410.00,387.00 410.00,387.00
             410.00,387.00 410.00,201.00 410.00,201.00
             410.00,201.00 610.00,201.00 610.00,201.00 Z" />
</svg>
