<?xml version="1.0" encoding="UTF-8" standalone="no"?>
<!DOCTYPE svg PUBLIC "-//W3C//DTD SVG 20010904//EN"
              "http://www.w3.org/TR/2001/REC-SVG-20010904/DTD/svg10.dtd">

<svg xmlns="http://www.w3.org/2000/svg"
     width="8.88889in" height="5.55556in"
     viewBox="0 0 640 400">
  <path id="Selection"
        fill="white" stroke="white" stroke-width="1"
        d="M 263.00,62.00
           C 263.00,62.00 339.00,62.00 339.00,62.00
             339.00,62.00 361.00,62.00 361.00,62.00
             361.00,62.00 373.00,63.00 373.00,63.00
             373.00,63.00 329.00,94.58 329.00,94.58
             329.00,94.58 237.00,161.12 237.00,161.12
             237.00,161.12 208.00,182.00 208.00,182.00
             208.00,182.00 197.16,191.17 197.16,191.17
             197.16,191.17 201.00,201.00 201.00,201.00
             201.00,201.00 248.00,167.42 248.00,167.42
             248.00,167.42 344.00,98.00 344.00,98.00
             344.00,98.00 379.00,72.71 379.00,72.71
             388.21,66.11 390.34,62.02 402.00,62.00
             402.00,62.00 640.00,62.00 640.00,62.00
             640.00,62.00 640.00,336.00 640.00,336.00
             640.00,336.00 485.00,336.00 485.00,336.00
             485.00,336.00 440.00,336.00 440.00,336.00
             440.00,336.00 419.00,335.00 419.00,335.00
             419.00,335.00 500.00,276.42 500.00,276.42
             500.00,276.42 561.00,232.37 561.00,232.37
             561.00,232.37 591.00,210.71 591.00,210.71
             591.00,210.71 602.84,200.83 602.84,200.83
             602.84,200.83 599.00,191.00 599.00,191.00
             599.00,191.00 552.00,224.58 552.00,224.58
             552.00,224.58 449.00,299.00 449.00,299.00
             449.00,299.00 414.00,324.37 414.00,324.37
             405.42,330.71 400.95,335.98 390.00,336.00
             390.00,336.00 0.00,336.00 0.00,336.00
             0.00,336.00 0.00,62.00 0.00,62.00
             0.00,62.00 263.00,62.00 263.00,62.00 Z
           M 615.00,172.00
           C 615.00,172.00 615.00,188.00 615.00,188.00
             615.00,188.00 630.00,188.00 630.00,188.00
             630.00,188.00 630.00,172.00 630.00,172.00
             630.00,172.00 615.00,172.00 615.00,172.00 Z
           M 172.00,200.00
           C 172.00,200.00 172.00,216.00 172.00,216.00
             172.00,216.00 187.00,216.00 187.00,216.00
             187.00,216.00 187.00,200.00 187.00,200.00
             187.00,200.00 172.00,200.00 172.00,200.00 Z
           M 148.00,223.00
           C 148.00,223.00 148.00,239.00 148.00,239.00
             148.00,239.00 163.00,239.00 163.00,239.00
             163.00,239.00 163.00,223.00 163.00,223.00
             163.00,223.00 148.00,223.00 148.00,223.00 Z
           M 125.00,245.00
           C 125.00,245.00 125.00,261.00 125.00,261.00
             125.00,261.00 140.00,261.00 140.00,261.00
             140.00,261.00 140.00,245.00 140.00,245.00
             140.00,245.00 125.00,245.00 125.00,245.00 Z" />
</svg>
