<?xml version="1.0" encoding="UTF-8" standalone="no"?>
<!DOCTYPE svg PUBLIC "-//W3C//DTD SVG 20010904//EN"
              "http://www.w3.org/TR/2001/REC-SVG-20010904/DTD/svg10.dtd">

<svg xmlns="http://www.w3.org/2000/svg"
     width="8.88889in" height="5.55556in"
     viewBox="100 80 640 400">
  <path id="Selection"
        fill="white" stroke="white" stroke-width="1" opacity="0.1"
        d="M 640.00,0.00
           C 640.00,0.00 640.00,62.00 640.00,62.00
             640.00,62.00 0.00,62.00 0.00,62.00
             0.00,62.00 0.00,0.00 0.00,0.00
             0.00,0.00 640.00,0.00 640.00,0.00 Z
           M 383.00,65.00
           C 383.00,65.00 383.00,76.00 383.00,76.00
             383.00,76.00 373.00,76.00 373.00,76.00
             373.00,76.00 373.00,65.00 373.00,65.00
             373.00,65.00 383.00,65.00 383.00,65.00 Z
           M 403.00,65.00
           C 403.00,65.00 403.00,76.00 403.00,76.00
             403.00,76.00 393.00,76.00 393.00,76.00
             393.00,76.00 393.00,65.00 393.00,65.00
             393.00,65.00 403.00,65.00 403.00,65.00 Z
           M 425.00,65.00
           C 425.00,65.00 425.00,76.00 425.00,76.00
             425.00,76.00 415.00,76.00 415.00,76.00
             415.00,76.00 415.00,65.00 415.00,65.00
             415.00,65.00 425.00,65.00 425.00,65.00 Z
           M 448.00,65.00
           C 448.00,65.00 448.00,76.00 448.00,76.00
             448.00,76.00 438.00,76.00 438.00,76.00
             438.00,76.00 438.00,65.00 438.00,65.00
             438.00,65.00 448.00,65.00 448.00,65.00 Z
           M 471.00,65.00
           C 471.00,65.00 471.00,76.00 471.00,76.00
             471.00,76.00 461.00,76.00 461.00,76.00
             461.00,76.00 461.00,65.00 461.00,65.00
             461.00,65.00 471.00,65.00 471.00,65.00 Z
           M 493.00,65.00
           C 493.00,65.00 493.00,76.00 493.00,76.00
             493.00,76.00 483.00,76.00 483.00,76.00
             483.00,76.00 483.00,65.00 483.00,65.00
             483.00,65.00 493.00,65.00 493.00,65.00 Z
           M 516.00,65.00
           C 516.00,65.00 516.00,76.00 516.00,76.00
             516.00,76.00 506.00,76.00 506.00,76.00
             506.00,76.00 506.00,65.00 506.00,65.00
             506.00,65.00 516.00,65.00 516.00,65.00 Z
           M 541.00,65.00
           C 541.00,65.00 541.00,76.00 541.00,76.00
             541.00,76.00 531.00,76.00 531.00,76.00
             531.00,76.00 531.00,65.00 531.00,65.00
             531.00,65.00 541.00,65.00 541.00,65.00 Z
           M 566.00,65.00
           C 566.00,65.00 566.00,76.00 566.00,76.00
             566.00,76.00 556.00,76.00 556.00,76.00
             556.00,76.00 556.00,65.00 556.00,65.00
             556.00,65.00 566.00,65.00 566.00,65.00 Z
           M 591.00,65.00
           C 591.00,65.00 591.00,76.00 591.00,76.00
             591.00,76.00 581.00,76.00 581.00,76.00
             581.00,76.00 581.00,65.00 581.00,65.00
             581.00,65.00 591.00,65.00 591.00,65.00 Z
           M 615.00,65.00
           C 615.00,65.00 615.00,76.00 615.00,76.00
             615.00,76.00 605.00,76.00 605.00,76.00
             605.00,76.00 605.00,65.00 605.00,65.00
             605.00,65.00 615.00,65.00 615.00,65.00 Z
           M 638.00,65.00
           C 638.00,65.00 638.00,76.00 638.00,76.00
             638.00,76.00 628.00,76.00 628.00,76.00
             628.00,76.00 628.00,65.00 628.00,65.00
             628.00,65.00 638.00,65.00 638.00,65.00 Z
           M 383.00,84.00
           C 383.00,84.00 383.00,95.00 383.00,95.00
             383.00,95.00 373.00,95.00 373.00,95.00
             373.00,95.00 373.00,84.00 373.00,84.00
             373.00,84.00 383.00,84.00 383.00,84.00 Z
           M 403.00,84.00
           C 403.00,84.00 403.00,95.00 403.00,95.00
             403.00,95.00 393.00,95.00 393.00,95.00
             393.00,95.00 393.00,84.00 393.00,84.00
             393.00,84.00 403.00,84.00 403.00,84.00 Z
           M 425.00,84.00
           C 425.00,84.00 425.00,95.00 425.00,95.00
             425.00,95.00 415.00,95.00 415.00,95.00
             415.00,95.00 415.00,84.00 415.00,84.00
             415.00,84.00 425.00,84.00 425.00,84.00 Z
           M 448.00,84.00
           C 448.00,84.00 448.00,95.00 448.00,95.00
             448.00,95.00 438.00,95.00 438.00,95.00
             438.00,95.00 438.00,84.00 438.00,84.00
             438.00,84.00 448.00,84.00 448.00,84.00 Z
           M 471.00,84.00
           C 471.00,84.00 471.00,95.00 471.00,95.00
             471.00,95.00 461.00,95.00 461.00,95.00
             461.00,95.00 461.00,84.00 461.00,84.00
             461.00,84.00 471.00,84.00 471.00,84.00 Z
           M 493.00,84.00
           C 493.00,84.00 493.00,95.00 493.00,95.00
             493.00,95.00 483.00,95.00 483.00,95.00
             483.00,95.00 483.00,84.00 483.00,84.00
             483.00,84.00 493.00,84.00 493.00,84.00 Z
           M 516.00,84.00
           C 516.00,84.00 516.00,95.00 516.00,95.00
             516.00,95.00 506.00,95.00 506.00,95.00
             506.00,95.00 506.00,84.00 506.00,84.00
             506.00,84.00 516.00,84.00 516.00,84.00 Z
           M 541.00,84.00
           C 541.00,84.00 541.00,95.00 541.00,95.00
             541.00,95.00 531.00,95.00 531.00,95.00
             531.00,95.00 531.00,84.00 531.00,84.00
             531.00,84.00 541.00,84.00 541.00,84.00 Z
           M 566.00,84.00
           C 566.00,84.00 566.00,95.00 566.00,95.00
             566.00,95.00 556.00,95.00 556.00,95.00
             556.00,95.00 556.00,84.00 556.00,84.00
             556.00,84.00 566.00,84.00 566.00,84.00 Z
           M 591.00,84.00
           C 591.00,84.00 591.00,95.00 591.00,95.00
             591.00,95.00 581.00,95.00 581.00,95.00
             581.00,95.00 581.00,84.00 581.00,84.00
             581.00,84.00 591.00,84.00 591.00,84.00 Z
           M 615.00,84.00
           C 615.00,84.00 615.00,95.00 615.00,95.00
             615.00,95.00 605.00,95.00 605.00,95.00
             605.00,95.00 605.00,84.00 605.00,84.00
             605.00,84.00 615.00,84.00 615.00,84.00 Z
           M 638.00,84.00
           C 638.00,84.00 638.00,95.00 638.00,95.00
             638.00,95.00 628.00,95.00 628.00,95.00
             628.00,95.00 628.00,84.00 628.00,84.00
             628.00,84.00 638.00,84.00 638.00,84.00 Z
           M 383.00,104.00
           C 383.00,104.00 383.00,115.00 383.00,115.00
             383.00,115.00 373.00,115.00 373.00,115.00
             373.00,115.00 373.00,104.00 373.00,104.00
             373.00,104.00 383.00,104.00 383.00,104.00 Z
           M 403.00,104.00
           C 403.00,104.00 403.00,115.00 403.00,115.00
             403.00,115.00 393.00,115.00 393.00,115.00
             393.00,115.00 393.00,104.00 393.00,104.00
             393.00,104.00 403.00,104.00 403.00,104.00 Z
           M 425.00,104.00
           C 425.00,104.00 425.00,115.00 425.00,115.00
             425.00,115.00 415.00,115.00 415.00,115.00
             415.00,115.00 415.00,104.00 415.00,104.00
             415.00,104.00 425.00,104.00 425.00,104.00 Z
           M 448.00,104.00
           C 448.00,104.00 448.00,115.00 448.00,115.00
             448.00,115.00 438.00,115.00 438.00,115.00
             438.00,115.00 438.00,104.00 438.00,104.00
             438.00,104.00 448.00,104.00 448.00,104.00 Z
           M 471.00,104.00
           C 471.00,104.00 471.00,115.00 471.00,115.00
             471.00,115.00 461.00,115.00 461.00,115.00
             461.00,115.00 461.00,104.00 461.00,104.00
             461.00,104.00 471.00,104.00 471.00,104.00 Z
           M 493.00,104.00
           C 493.00,104.00 493.00,115.00 493.00,115.00
             493.00,115.00 483.00,115.00 483.00,115.00
             483.00,115.00 483.00,104.00 483.00,104.00
             483.00,104.00 493.00,104.00 493.00,104.00 Z
           M 516.00,104.00
           C 516.00,104.00 516.00,115.00 516.00,115.00
             516.00,115.00 506.00,115.00 506.00,115.00
             506.00,115.00 506.00,104.00 506.00,104.00
             506.00,104.00 516.00,104.00 516.00,104.00 Z
           M 541.00,104.00
           C 541.00,104.00 541.00,115.00 541.00,115.00
             541.00,115.00 531.00,115.00 531.00,115.00
             531.00,115.00 531.00,104.00 531.00,104.00
             531.00,104.00 541.00,104.00 541.00,104.00 Z
           M 566.00,104.00
           C 566.00,104.00 566.00,115.00 566.00,115.00
             566.00,115.00 556.00,115.00 556.00,115.00
             556.00,115.00 556.00,104.00 556.00,104.00
             556.00,104.00 566.00,104.00 566.00,104.00 Z
           M 591.00,104.00
           C 591.00,104.00 591.00,115.00 591.00,115.00
             591.00,115.00 581.00,115.00 581.00,115.00
             581.00,115.00 581.00,104.00 581.00,104.00
             581.00,104.00 591.00,104.00 591.00,104.00 Z
           M 615.00,104.00
           C 615.00,104.00 615.00,115.00 615.00,115.00
             615.00,115.00 605.00,115.00 605.00,115.00
             605.00,115.00 605.00,104.00 605.00,104.00
             605.00,104.00 615.00,104.00 615.00,104.00 Z
           M 638.00,104.00
           C 638.00,104.00 638.00,115.00 638.00,115.00
             638.00,115.00 628.00,115.00 628.00,115.00
             628.00,115.00 628.00,104.00 628.00,104.00
             628.00,104.00 638.00,104.00 638.00,104.00 Z
           M 27.00,148.00
           C 27.00,148.00 41.00,161.04 41.00,161.04
             41.00,161.04 60.00,179.96 60.00,179.96
             60.00,179.96 98.00,216.04 98.00,216.04
             98.00,216.04 117.00,234.96 117.00,234.96
             117.00,234.96 165.00,281.00 165.00,281.00
             165.00,281.00 182.00,297.04 182.00,297.04
             182.00,297.04 208.00,322.17 208.00,322.17
             216.55,329.91 218.02,335.98 230.00,336.00
             230.00,336.00 640.00,336.00 640.00,336.00
             640.00,336.00 640.00,400.00 640.00,400.00
             640.00,400.00 0.00,400.00 0.00,400.00
             0.00,400.00 0.00,123.00 0.00,123.00
             8.97,129.40 19.08,140.08 27.00,148.00 Z
           M 383.00,123.00
           C 383.00,123.00 383.00,134.00 383.00,134.00
             383.00,134.00 373.00,134.00 373.00,134.00
             373.00,134.00 373.00,123.00 373.00,123.00
             373.00,123.00 383.00,123.00 383.00,123.00 Z
           M 403.00,123.00
           C 403.00,123.00 403.00,134.00 403.00,134.00
             403.00,134.00 393.00,134.00 393.00,134.00
             393.00,134.00 393.00,123.00 393.00,123.00
             393.00,123.00 403.00,123.00 403.00,123.00 Z
           M 425.00,123.00
           C 425.00,123.00 425.00,134.00 425.00,134.00
             425.00,134.00 415.00,134.00 415.00,134.00
             415.00,134.00 415.00,123.00 415.00,123.00
             415.00,123.00 425.00,123.00 425.00,123.00 Z
           M 448.00,123.00
           C 448.00,123.00 448.00,134.00 448.00,134.00
             448.00,134.00 438.00,134.00 438.00,134.00
             438.00,134.00 438.00,123.00 438.00,123.00
             438.00,123.00 448.00,123.00 448.00,123.00 Z
           M 471.00,123.00
           C 471.00,123.00 471.00,134.00 471.00,134.00
             471.00,134.00 461.00,134.00 461.00,134.00
             461.00,134.00 461.00,123.00 461.00,123.00
             461.00,123.00 471.00,123.00 471.00,123.00 Z
           M 493.00,123.00
           C 493.00,123.00 493.00,134.00 493.00,134.00
             493.00,134.00 483.00,134.00 483.00,134.00
             483.00,134.00 483.00,123.00 483.00,123.00
             483.00,123.00 493.00,123.00 493.00,123.00 Z
           M 516.00,123.00
           C 516.00,123.00 516.00,134.00 516.00,134.00
             516.00,134.00 506.00,134.00 506.00,134.00
             506.00,134.00 506.00,123.00 506.00,123.00
             506.00,123.00 516.00,123.00 516.00,123.00 Z
           M 541.00,123.00
           C 541.00,123.00 541.00,134.00 541.00,134.00
             541.00,134.00 531.00,134.00 531.00,134.00
             531.00,134.00 531.00,123.00 531.00,123.00
             531.00,123.00 541.00,123.00 541.00,123.00 Z
           M 566.00,123.00
           C 566.00,123.00 566.00,134.00 566.00,134.00
             566.00,134.00 556.00,134.00 556.00,134.00
             556.00,134.00 556.00,123.00 556.00,123.00
             556.00,123.00 566.00,123.00 566.00,123.00 Z
           M 591.00,123.00
           C 591.00,123.00 591.00,134.00 591.00,134.00
             591.00,134.00 581.00,134.00 581.00,134.00
             581.00,134.00 581.00,123.00 581.00,123.00
             581.00,123.00 591.00,123.00 591.00,123.00 Z
           M 615.00,123.00
           C 615.00,123.00 615.00,134.00 615.00,134.00
             615.00,134.00 605.00,134.00 605.00,134.00
             605.00,134.00 605.00,123.00 605.00,123.00
             605.00,123.00 615.00,123.00 615.00,123.00 Z
           M 638.00,123.00
           C 638.00,123.00 638.00,134.00 638.00,134.00
             638.00,134.00 628.00,134.00 628.00,134.00
             628.00,134.00 628.00,123.00 628.00,123.00
             628.00,123.00 638.00,123.00 638.00,123.00 Z
           M 383.00,140.00
           C 383.00,140.00 383.00,151.00 383.00,151.00
             383.00,151.00 373.00,151.00 373.00,151.00
             373.00,151.00 373.00,140.00 373.00,140.00
             373.00,140.00 383.00,140.00 383.00,140.00 Z
           M 403.00,140.00
           C 403.00,140.00 403.00,151.00 403.00,151.00
             403.00,151.00 393.00,151.00 393.00,151.00
             393.00,151.00 393.00,140.00 393.00,140.00
             393.00,140.00 403.00,140.00 403.00,140.00 Z
           M 425.00,140.00
           C 425.00,140.00 425.00,151.00 425.00,151.00
             425.00,151.00 415.00,151.00 415.00,151.00
             415.00,151.00 415.00,140.00 415.00,140.00
             415.00,140.00 425.00,140.00 425.00,140.00 Z
           M 448.00,140.00
           C 448.00,140.00 448.00,151.00 448.00,151.00
             448.00,151.00 438.00,151.00 438.00,151.00
             438.00,151.00 438.00,140.00 438.00,140.00
             438.00,140.00 448.00,140.00 448.00,140.00 Z
           M 471.00,140.00
           C 471.00,140.00 471.00,151.00 471.00,151.00
             471.00,151.00 461.00,151.00 461.00,151.00
             461.00,151.00 461.00,140.00 461.00,140.00
             461.00,140.00 471.00,140.00 471.00,140.00 Z
           M 493.00,140.00
           C 493.00,140.00 493.00,151.00 493.00,151.00
             493.00,151.00 483.00,151.00 483.00,151.00
             483.00,151.00 483.00,140.00 483.00,140.00
             483.00,140.00 493.00,140.00 493.00,140.00 Z
           M 516.00,140.00
           C 516.00,140.00 516.00,151.00 516.00,151.00
             516.00,151.00 506.00,151.00 506.00,151.00
             506.00,151.00 506.00,140.00 506.00,140.00
             506.00,140.00 516.00,140.00 516.00,140.00 Z
           M 541.00,140.00
           C 541.00,140.00 541.00,151.00 541.00,151.00
             541.00,151.00 531.00,151.00 531.00,151.00
             531.00,151.00 531.00,140.00 531.00,140.00
             531.00,140.00 541.00,140.00 541.00,140.00 Z
           M 566.00,140.00
           C 566.00,140.00 566.00,151.00 566.00,151.00
             566.00,151.00 556.00,151.00 556.00,151.00
             556.00,151.00 556.00,140.00 556.00,140.00
             556.00,140.00 566.00,140.00 566.00,140.00 Z
           M 591.00,140.00
           C 591.00,140.00 591.00,151.00 591.00,151.00
             591.00,151.00 581.00,151.00 581.00,151.00
             581.00,151.00 581.00,140.00 581.00,140.00
             581.00,140.00 591.00,140.00 591.00,140.00 Z
           M 615.00,140.00
           C 615.00,140.00 615.00,151.00 615.00,151.00
             615.00,151.00 605.00,151.00 605.00,151.00
             605.00,151.00 605.00,140.00 605.00,140.00
             605.00,140.00 615.00,140.00 615.00,140.00 Z
           M 638.00,140.00
           C 638.00,140.00 638.00,151.00 638.00,151.00
             638.00,151.00 628.00,151.00 628.00,151.00
             628.00,151.00 628.00,140.00 628.00,140.00
             628.00,140.00 638.00,140.00 638.00,140.00 Z
           M 383.00,158.00
           C 383.00,158.00 383.00,169.00 383.00,169.00
             383.00,169.00 373.00,169.00 373.00,169.00
             373.00,169.00 373.00,158.00 373.00,158.00
             373.00,158.00 383.00,158.00 383.00,158.00 Z
           M 403.00,158.00
           C 403.00,158.00 403.00,169.00 403.00,169.00
             403.00,169.00 393.00,169.00 393.00,169.00
             393.00,169.00 393.00,158.00 393.00,158.00
             393.00,158.00 403.00,158.00 403.00,158.00 Z
           M 425.00,158.00
           C 425.00,158.00 425.00,169.00 425.00,169.00
             425.00,169.00 415.00,169.00 415.00,169.00
             415.00,169.00 415.00,158.00 415.00,158.00
             415.00,158.00 425.00,158.00 425.00,158.00 Z
           M 448.00,158.00
           C 448.00,158.00 448.00,169.00 448.00,169.00
             448.00,169.00 438.00,169.00 438.00,169.00
             438.00,169.00 438.00,158.00 438.00,158.00
             438.00,158.00 448.00,158.00 448.00,158.00 Z
           M 471.00,158.00
           C 471.00,158.00 471.00,169.00 471.00,169.00
             471.00,169.00 461.00,169.00 461.00,169.00
             461.00,169.00 461.00,158.00 461.00,158.00
             461.00,158.00 471.00,158.00 471.00,158.00 Z
           M 493.00,158.00
           C 493.00,158.00 493.00,169.00 493.00,169.00
             493.00,169.00 483.00,169.00 483.00,169.00
             483.00,169.00 483.00,158.00 483.00,158.00
             483.00,158.00 493.00,158.00 493.00,158.00 Z
           M 516.00,158.00
           C 516.00,158.00 516.00,169.00 516.00,169.00
             516.00,169.00 506.00,169.00 506.00,169.00
             506.00,169.00 506.00,158.00 506.00,158.00
             506.00,158.00 516.00,158.00 516.00,158.00 Z
           M 541.00,158.00
           C 541.00,158.00 541.00,169.00 541.00,169.00
             541.00,169.00 531.00,169.00 531.00,169.00
             531.00,169.00 531.00,158.00 531.00,158.00
             531.00,158.00 541.00,158.00 541.00,158.00 Z
           M 566.00,158.00
           C 566.00,158.00 566.00,169.00 566.00,169.00
             566.00,169.00 556.00,169.00 556.00,169.00
             556.00,169.00 556.00,158.00 556.00,158.00
             556.00,158.00 566.00,158.00 566.00,158.00 Z
           M 591.00,158.00
           C 591.00,158.00 591.00,169.00 591.00,169.00
             591.00,169.00 581.00,169.00 581.00,169.00
             581.00,169.00 581.00,158.00 581.00,158.00
             581.00,158.00 591.00,158.00 591.00,158.00 Z
           M 615.00,158.00
           C 615.00,158.00 615.00,169.00 615.00,169.00
             615.00,169.00 605.00,169.00 605.00,169.00
             605.00,169.00 605.00,158.00 605.00,158.00
             605.00,158.00 615.00,158.00 615.00,158.00 Z
           M 638.00,158.00
           C 638.00,158.00 638.00,169.00 638.00,169.00
             638.00,169.00 628.00,169.00 628.00,169.00
             628.00,169.00 628.00,158.00 628.00,158.00
             628.00,158.00 638.00,158.00 638.00,158.00 Z
           M 383.00,177.00
           C 383.00,177.00 383.00,188.00 383.00,188.00
             383.00,188.00 373.00,188.00 373.00,188.00
             373.00,188.00 373.00,177.00 373.00,177.00
             373.00,177.00 383.00,177.00 383.00,177.00 Z
           M 403.00,177.00
           C 403.00,177.00 403.00,188.00 403.00,188.00
             403.00,188.00 393.00,188.00 393.00,188.00
             393.00,188.00 393.00,177.00 393.00,177.00
             393.00,177.00 403.00,177.00 403.00,177.00 Z
           M 425.00,177.00
           C 425.00,177.00 425.00,188.00 425.00,188.00
             425.00,188.00 415.00,188.00 415.00,188.00
             415.00,188.00 415.00,177.00 415.00,177.00
             415.00,177.00 425.00,177.00 425.00,177.00 Z
           M 448.00,177.00
           C 448.00,177.00 448.00,188.00 448.00,188.00
             448.00,188.00 438.00,188.00 438.00,188.00
             438.00,188.00 438.00,177.00 438.00,177.00
             438.00,177.00 448.00,177.00 448.00,177.00 Z
           M 471.00,177.00
           C 471.00,177.00 471.00,188.00 471.00,188.00
             471.00,188.00 461.00,188.00 461.00,188.00
             461.00,188.00 461.00,177.00 461.00,177.00
             461.00,177.00 471.00,177.00 471.00,177.00 Z
           M 493.00,177.00
           C 493.00,177.00 493.00,188.00 493.00,188.00
             493.00,188.00 483.00,188.00 483.00,188.00
             483.00,188.00 483.00,177.00 483.00,177.00
             483.00,177.00 493.00,177.00 493.00,177.00 Z
           M 516.00,177.00
           C 516.00,177.00 516.00,188.00 516.00,188.00
             516.00,188.00 506.00,188.00 506.00,188.00
             506.00,188.00 506.00,177.00 506.00,177.00
             506.00,177.00 516.00,177.00 516.00,177.00 Z
           M 541.00,177.00
           C 541.00,177.00 541.00,188.00 541.00,188.00
             541.00,188.00 531.00,188.00 531.00,188.00
             531.00,188.00 531.00,177.00 531.00,177.00
             531.00,177.00 541.00,177.00 541.00,177.00 Z
           M 566.00,177.00
           C 566.00,177.00 566.00,188.00 566.00,188.00
             566.00,188.00 556.00,188.00 556.00,188.00
             556.00,188.00 556.00,177.00 556.00,177.00
             556.00,177.00 566.00,177.00 566.00,177.00 Z
           M 591.00,177.00
           C 591.00,177.00 591.00,188.00 591.00,188.00
             591.00,188.00 581.00,188.00 581.00,188.00
             581.00,188.00 581.00,177.00 581.00,177.00
             581.00,177.00 591.00,177.00 591.00,177.00 Z
           M 615.00,177.00
           C 615.00,177.00 615.00,188.00 615.00,188.00
             615.00,188.00 605.00,188.00 605.00,188.00
             605.00,188.00 605.00,177.00 605.00,177.00
             605.00,177.00 615.00,177.00 615.00,177.00 Z
           M 638.00,177.00
           C 638.00,177.00 638.00,188.00 638.00,188.00
             638.00,188.00 628.00,188.00 628.00,188.00
             628.00,188.00 628.00,177.00 628.00,177.00
             628.00,177.00 638.00,177.00 638.00,177.00 Z
           M 383.00,195.00
           C 383.00,195.00 383.00,206.00 383.00,206.00
             383.00,206.00 373.00,206.00 373.00,206.00
             373.00,206.00 373.00,195.00 373.00,195.00
             373.00,195.00 383.00,195.00 383.00,195.00 Z
           M 403.00,195.00
           C 403.00,195.00 403.00,206.00 403.00,206.00
             403.00,206.00 393.00,206.00 393.00,206.00
             393.00,206.00 393.00,195.00 393.00,195.00
             393.00,195.00 403.00,195.00 403.00,195.00 Z
           M 425.00,195.00
           C 425.00,195.00 425.00,206.00 425.00,206.00
             425.00,206.00 415.00,206.00 415.00,206.00
             415.00,206.00 415.00,195.00 415.00,195.00
             415.00,195.00 425.00,195.00 425.00,195.00 Z
           M 448.00,195.00
           C 448.00,195.00 448.00,206.00 448.00,206.00
             448.00,206.00 438.00,206.00 438.00,206.00
             438.00,206.00 438.00,195.00 438.00,195.00
             438.00,195.00 448.00,195.00 448.00,195.00 Z
           M 471.00,195.00
           C 471.00,195.00 471.00,206.00 471.00,206.00
             471.00,206.00 461.00,206.00 461.00,206.00
             461.00,206.00 461.00,195.00 461.00,195.00
             461.00,195.00 471.00,195.00 471.00,195.00 Z
           M 493.00,195.00
           C 493.00,195.00 493.00,206.00 493.00,206.00
             493.00,206.00 483.00,206.00 483.00,206.00
             483.00,206.00 483.00,195.00 483.00,195.00
             483.00,195.00 493.00,195.00 493.00,195.00 Z
           M 516.00,195.00
           C 516.00,195.00 516.00,206.00 516.00,206.00
             516.00,206.00 506.00,206.00 506.00,206.00
             506.00,206.00 506.00,195.00 506.00,195.00
             506.00,195.00 516.00,195.00 516.00,195.00 Z
           M 541.00,195.00
           C 541.00,195.00 541.00,206.00 541.00,206.00
             541.00,206.00 531.00,206.00 531.00,206.00
             531.00,206.00 531.00,195.00 531.00,195.00
             531.00,195.00 541.00,195.00 541.00,195.00 Z
           M 566.00,195.00
           C 566.00,195.00 566.00,206.00 566.00,206.00
             566.00,206.00 556.00,206.00 556.00,206.00
             556.00,206.00 556.00,195.00 556.00,195.00
             556.00,195.00 566.00,195.00 566.00,195.00 Z
           M 591.00,195.00
           C 591.00,195.00 591.00,206.00 591.00,206.00
             591.00,206.00 581.00,206.00 581.00,206.00
             581.00,206.00 581.00,195.00 581.00,195.00
             581.00,195.00 591.00,195.00 591.00,195.00 Z
           M 615.00,195.00
           C 615.00,195.00 615.00,206.00 615.00,206.00
             615.00,206.00 605.00,206.00 605.00,206.00
             605.00,206.00 605.00,195.00 605.00,195.00
             605.00,195.00 615.00,195.00 615.00,195.00 Z
           M 638.00,195.00
           C 638.00,195.00 638.00,206.00 638.00,206.00
             638.00,206.00 628.00,206.00 628.00,206.00
             628.00,206.00 628.00,195.00 628.00,195.00
             628.00,195.00 638.00,195.00 638.00,195.00 Z
           M 383.00,213.00
           C 383.00,213.00 383.00,224.00 383.00,224.00
             383.00,224.00 373.00,224.00 373.00,224.00
             373.00,224.00 373.00,213.00 373.00,213.00
             373.00,213.00 383.00,213.00 383.00,213.00 Z
           M 403.00,213.00
           C 403.00,213.00 403.00,224.00 403.00,224.00
             403.00,224.00 393.00,224.00 393.00,224.00
             393.00,224.00 393.00,213.00 393.00,213.00
             393.00,213.00 403.00,213.00 403.00,213.00 Z
           M 425.00,213.00
           C 425.00,213.00 425.00,224.00 425.00,224.00
             425.00,224.00 415.00,224.00 415.00,224.00
             415.00,224.00 415.00,213.00 415.00,213.00
             415.00,213.00 425.00,213.00 425.00,213.00 Z
           M 448.00,213.00
           C 448.00,213.00 448.00,224.00 448.00,224.00
             448.00,224.00 438.00,224.00 438.00,224.00
             438.00,224.00 438.00,213.00 438.00,213.00
             438.00,213.00 448.00,213.00 448.00,213.00 Z
           M 471.00,213.00
           C 471.00,213.00 471.00,224.00 471.00,224.00
             471.00,224.00 461.00,224.00 461.00,224.00
             461.00,224.00 461.00,213.00 461.00,213.00
             461.00,213.00 471.00,213.00 471.00,213.00 Z
           M 493.00,213.00
           C 493.00,213.00 493.00,224.00 493.00,224.00
             493.00,224.00 483.00,224.00 483.00,224.00
             483.00,224.00 483.00,213.00 483.00,213.00
             483.00,213.00 493.00,213.00 493.00,213.00 Z
           M 516.00,213.00
           C 516.00,213.00 516.00,224.00 516.00,224.00
             516.00,224.00 506.00,224.00 506.00,224.00
             506.00,224.00 506.00,213.00 506.00,213.00
             506.00,213.00 516.00,213.00 516.00,213.00 Z
           M 541.00,213.00
           C 541.00,213.00 541.00,224.00 541.00,224.00
             541.00,224.00 531.00,224.00 531.00,224.00
             531.00,224.00 531.00,213.00 531.00,213.00
             531.00,213.00 541.00,213.00 541.00,213.00 Z
           M 566.00,213.00
           C 566.00,213.00 566.00,224.00 566.00,224.00
             566.00,224.00 556.00,224.00 556.00,224.00
             556.00,224.00 556.00,213.00 556.00,213.00
             556.00,213.00 566.00,213.00 566.00,213.00 Z
           M 591.00,213.00
           C 591.00,213.00 591.00,224.00 591.00,224.00
             591.00,224.00 581.00,224.00 581.00,224.00
             581.00,224.00 581.00,213.00 581.00,213.00
             581.00,213.00 591.00,213.00 591.00,213.00 Z
           M 615.00,213.00
           C 615.00,213.00 615.00,224.00 615.00,224.00
             615.00,224.00 605.00,224.00 605.00,224.00
             605.00,224.00 605.00,213.00 605.00,213.00
             605.00,213.00 615.00,213.00 615.00,213.00 Z
           M 638.00,213.00
           C 638.00,213.00 638.00,224.00 638.00,224.00
             638.00,224.00 628.00,224.00 628.00,224.00
             628.00,224.00 628.00,213.00 628.00,213.00
             628.00,213.00 638.00,213.00 638.00,213.00 Z
           M 383.00,232.00
           C 383.00,232.00 383.00,243.00 383.00,243.00
             383.00,243.00 373.00,243.00 373.00,243.00
             373.00,243.00 373.00,232.00 373.00,232.00
             373.00,232.00 383.00,232.00 383.00,232.00 Z
           M 403.00,232.00
           C 403.00,232.00 403.00,243.00 403.00,243.00
             403.00,243.00 393.00,243.00 393.00,243.00
             393.00,243.00 393.00,232.00 393.00,232.00
             393.00,232.00 403.00,232.00 403.00,232.00 Z
           M 425.00,232.00
           C 425.00,232.00 425.00,243.00 425.00,243.00
             425.00,243.00 415.00,243.00 415.00,243.00
             415.00,243.00 415.00,232.00 415.00,232.00
             415.00,232.00 425.00,232.00 425.00,232.00 Z
           M 448.00,232.00
           C 448.00,232.00 448.00,243.00 448.00,243.00
             448.00,243.00 438.00,243.00 438.00,243.00
             438.00,243.00 438.00,232.00 438.00,232.00
             438.00,232.00 448.00,232.00 448.00,232.00 Z
           M 471.00,232.00
           C 471.00,232.00 471.00,243.00 471.00,243.00
             471.00,243.00 461.00,243.00 461.00,243.00
             461.00,243.00 461.00,232.00 461.00,232.00
             461.00,232.00 471.00,232.00 471.00,232.00 Z
           M 493.00,232.00
           C 493.00,232.00 493.00,243.00 493.00,243.00
             493.00,243.00 483.00,243.00 483.00,243.00
             483.00,243.00 483.00,232.00 483.00,232.00
             483.00,232.00 493.00,232.00 493.00,232.00 Z
           M 516.00,232.00
           C 516.00,232.00 516.00,243.00 516.00,243.00
             516.00,243.00 506.00,243.00 506.00,243.00
             506.00,243.00 506.00,232.00 506.00,232.00
             506.00,232.00 516.00,232.00 516.00,232.00 Z
           M 541.00,232.00
           C 541.00,232.00 541.00,243.00 541.00,243.00
             541.00,243.00 531.00,243.00 531.00,243.00
             531.00,243.00 531.00,232.00 531.00,232.00
             531.00,232.00 541.00,232.00 541.00,232.00 Z
           M 566.00,232.00
           C 566.00,232.00 566.00,243.00 566.00,243.00
             566.00,243.00 556.00,243.00 556.00,243.00
             556.00,243.00 556.00,232.00 556.00,232.00
             556.00,232.00 566.00,232.00 566.00,232.00 Z
           M 591.00,232.00
           C 591.00,232.00 591.00,243.00 591.00,243.00
             591.00,243.00 581.00,243.00 581.00,243.00
             581.00,243.00 581.00,232.00 581.00,232.00
             581.00,232.00 591.00,232.00 591.00,232.00 Z
           M 615.00,232.00
           C 615.00,232.00 615.00,243.00 615.00,243.00
             615.00,243.00 605.00,243.00 605.00,243.00
             605.00,243.00 605.00,232.00 605.00,232.00
             605.00,232.00 615.00,232.00 615.00,232.00 Z
           M 638.00,232.00
           C 638.00,232.00 638.00,243.00 638.00,243.00
             638.00,243.00 628.00,243.00 628.00,243.00
             628.00,243.00 628.00,232.00 628.00,232.00
             628.00,232.00 638.00,232.00 638.00,232.00 Z
           M 383.00,249.00
           C 383.00,249.00 383.00,260.00 383.00,260.00
             383.00,260.00 373.00,260.00 373.00,260.00
             373.00,260.00 373.00,249.00 373.00,249.00
             373.00,249.00 383.00,249.00 383.00,249.00 Z
           M 403.00,249.00
           C 403.00,249.00 403.00,260.00 403.00,260.00
             403.00,260.00 393.00,260.00 393.00,260.00
             393.00,260.00 393.00,249.00 393.00,249.00
             393.00,249.00 403.00,249.00 403.00,249.00 Z
           M 425.00,249.00
           C 425.00,249.00 425.00,260.00 425.00,260.00
             425.00,260.00 415.00,260.00 415.00,260.00
             415.00,260.00 415.00,249.00 415.00,249.00
             415.00,249.00 425.00,249.00 425.00,249.00 Z
           M 448.00,249.00
           C 448.00,249.00 448.00,260.00 448.00,260.00
             448.00,260.00 438.00,260.00 438.00,260.00
             438.00,260.00 438.00,249.00 438.00,249.00
             438.00,249.00 448.00,249.00 448.00,249.00 Z
           M 471.00,249.00
           C 471.00,249.00 471.00,260.00 471.00,260.00
             471.00,260.00 461.00,260.00 461.00,260.00
             461.00,260.00 461.00,249.00 461.00,249.00
             461.00,249.00 471.00,249.00 471.00,249.00 Z
           M 493.00,249.00
           C 493.00,249.00 493.00,260.00 493.00,260.00
             493.00,260.00 483.00,260.00 483.00,260.00
             483.00,260.00 483.00,249.00 483.00,249.00
             483.00,249.00 493.00,249.00 493.00,249.00 Z
           M 516.00,249.00
           C 516.00,249.00 516.00,260.00 516.00,260.00
             516.00,260.00 506.00,260.00 506.00,260.00
             506.00,260.00 506.00,249.00 506.00,249.00
             506.00,249.00 516.00,249.00 516.00,249.00 Z
           M 541.00,249.00
           C 541.00,249.00 541.00,260.00 541.00,260.00
             541.00,260.00 531.00,260.00 531.00,260.00
             531.00,260.00 531.00,249.00 531.00,249.00
             531.00,249.00 541.00,249.00 541.00,249.00 Z
           M 566.00,249.00
           C 566.00,249.00 566.00,260.00 566.00,260.00
             566.00,260.00 556.00,260.00 556.00,260.00
             556.00,260.00 556.00,249.00 556.00,249.00
             556.00,249.00 566.00,249.00 566.00,249.00 Z
           M 591.00,249.00
           C 591.00,249.00 591.00,260.00 591.00,260.00
             591.00,260.00 581.00,260.00 581.00,260.00
             581.00,260.00 581.00,249.00 581.00,249.00
             581.00,249.00 591.00,249.00 591.00,249.00 Z
           M 615.00,249.00
           C 615.00,249.00 615.00,260.00 615.00,260.00
             615.00,260.00 605.00,260.00 605.00,260.00
             605.00,260.00 605.00,249.00 605.00,249.00
             605.00,249.00 615.00,249.00 615.00,249.00 Z
           M 638.00,249.00
           C 638.00,249.00 638.00,260.00 638.00,260.00
             638.00,260.00 628.00,260.00 628.00,260.00
             628.00,260.00 628.00,249.00 628.00,249.00
             628.00,249.00 638.00,249.00 638.00,249.00 Z
           M 383.00,266.00
           C 383.00,266.00 383.00,277.00 383.00,277.00
             383.00,277.00 373.00,277.00 373.00,277.00
             373.00,277.00 373.00,266.00 373.00,266.00
             373.00,266.00 383.00,266.00 383.00,266.00 Z
           M 403.00,266.00
           C 403.00,266.00 403.00,277.00 403.00,277.00
             403.00,277.00 393.00,277.00 393.00,277.00
             393.00,277.00 393.00,266.00 393.00,266.00
             393.00,266.00 403.00,266.00 403.00,266.00 Z
           M 425.00,266.00
           C 425.00,266.00 425.00,277.00 425.00,277.00
             425.00,277.00 415.00,277.00 415.00,277.00
             415.00,277.00 415.00,266.00 415.00,266.00
             415.00,266.00 425.00,266.00 425.00,266.00 Z
           M 448.00,266.00
           C 448.00,266.00 448.00,277.00 448.00,277.00
             448.00,277.00 438.00,277.00 438.00,277.00
             438.00,277.00 438.00,266.00 438.00,266.00
             438.00,266.00 448.00,266.00 448.00,266.00 Z
           M 471.00,266.00
           C 471.00,266.00 471.00,277.00 471.00,277.00
             471.00,277.00 461.00,277.00 461.00,277.00
             461.00,277.00 461.00,266.00 461.00,266.00
             461.00,266.00 471.00,266.00 471.00,266.00 Z
           M 493.00,266.00
           C 493.00,266.00 493.00,277.00 493.00,277.00
             493.00,277.00 483.00,277.00 483.00,277.00
             483.00,277.00 483.00,266.00 483.00,266.00
             483.00,266.00 493.00,266.00 493.00,266.00 Z
           M 516.00,266.00
           C 516.00,266.00 516.00,277.00 516.00,277.00
             516.00,277.00 506.00,277.00 506.00,277.00
             506.00,277.00 506.00,266.00 506.00,266.00
             506.00,266.00 516.00,266.00 516.00,266.00 Z
           M 541.00,266.00
           C 541.00,266.00 541.00,277.00 541.00,277.00
             541.00,277.00 531.00,277.00 531.00,277.00
             531.00,277.00 531.00,266.00 531.00,266.00
             531.00,266.00 541.00,266.00 541.00,266.00 Z
           M 566.00,266.00
           C 566.00,266.00 566.00,277.00 566.00,277.00
             566.00,277.00 556.00,277.00 556.00,277.00
             556.00,277.00 556.00,266.00 556.00,266.00
             556.00,266.00 566.00,266.00 566.00,266.00 Z
           M 591.00,266.00
           C 591.00,266.00 591.00,277.00 591.00,277.00
             591.00,277.00 581.00,277.00 581.00,277.00
             581.00,277.00 581.00,266.00 581.00,266.00
             581.00,266.00 591.00,266.00 591.00,266.00 Z
           M 615.00,266.00
           C 615.00,266.00 615.00,277.00 615.00,277.00
             615.00,277.00 605.00,277.00 605.00,277.00
             605.00,277.00 605.00,266.00 605.00,266.00
             605.00,266.00 615.00,266.00 615.00,266.00 Z
           M 638.00,266.00
           C 638.00,266.00 638.00,277.00 638.00,277.00
             638.00,277.00 628.00,277.00 628.00,277.00
             628.00,277.00 628.00,266.00 628.00,266.00
             628.00,266.00 638.00,266.00 638.00,266.00 Z
           M 383.00,284.00
           C 383.00,284.00 383.00,295.00 383.00,295.00
             383.00,295.00 373.00,295.00 373.00,295.00
             373.00,295.00 373.00,284.00 373.00,284.00
             373.00,284.00 383.00,284.00 383.00,284.00 Z
           M 403.00,284.00
           C 403.00,284.00 403.00,295.00 403.00,295.00
             403.00,295.00 393.00,295.00 393.00,295.00
             393.00,295.00 393.00,284.00 393.00,284.00
             393.00,284.00 403.00,284.00 403.00,284.00 Z
           M 425.00,284.00
           C 425.00,284.00 425.00,295.00 425.00,295.00
             425.00,295.00 415.00,295.00 415.00,295.00
             415.00,295.00 415.00,284.00 415.00,284.00
             415.00,284.00 425.00,284.00 425.00,284.00 Z
           M 448.00,284.00
           C 448.00,284.00 448.00,295.00 448.00,295.00
             448.00,295.00 438.00,295.00 438.00,295.00
             438.00,295.00 438.00,284.00 438.00,284.00
             438.00,284.00 448.00,284.00 448.00,284.00 Z
           M 471.00,284.00
           C 471.00,284.00 471.00,295.00 471.00,295.00
             471.00,295.00 461.00,295.00 461.00,295.00
             461.00,295.00 461.00,284.00 461.00,284.00
             461.00,284.00 471.00,284.00 471.00,284.00 Z
           M 493.00,284.00
           C 493.00,284.00 493.00,295.00 493.00,295.00
             493.00,295.00 483.00,295.00 483.00,295.00
             483.00,295.00 483.00,284.00 483.00,284.00
             483.00,284.00 493.00,284.00 493.00,284.00 Z
           M 516.00,284.00
           C 516.00,284.00 516.00,295.00 516.00,295.00
             516.00,295.00 506.00,295.00 506.00,295.00
             506.00,295.00 506.00,284.00 506.00,284.00
             506.00,284.00 516.00,284.00 516.00,284.00 Z
           M 541.00,284.00
           C 541.00,284.00 541.00,295.00 541.00,295.00
             541.00,295.00 531.00,295.00 531.00,295.00
             531.00,295.00 531.00,284.00 531.00,284.00
             531.00,284.00 541.00,284.00 541.00,284.00 Z
           M 566.00,284.00
           C 566.00,284.00 566.00,295.00 566.00,295.00
             566.00,295.00 556.00,295.00 556.00,295.00
             556.00,295.00 556.00,284.00 556.00,284.00
             556.00,284.00 566.00,284.00 566.00,284.00 Z
           M 591.00,284.00
           C 591.00,284.00 591.00,295.00 591.00,295.00
             591.00,295.00 581.00,295.00 581.00,295.00
             581.00,295.00 581.00,284.00 581.00,284.00
             581.00,284.00 591.00,284.00 591.00,284.00 Z
           M 615.00,284.00
           C 615.00,284.00 615.00,295.00 615.00,295.00
             615.00,295.00 605.00,295.00 605.00,295.00
             605.00,295.00 605.00,284.00 605.00,284.00
             605.00,284.00 615.00,284.00 615.00,284.00 Z
           M 638.00,284.00
           C 638.00,284.00 638.00,295.00 638.00,295.00
             638.00,295.00 628.00,295.00 628.00,295.00
             628.00,295.00 628.00,284.00 628.00,284.00
             628.00,284.00 638.00,284.00 638.00,284.00 Z" />
</svg>
