<?xml version="1.0" encoding="UTF-8" standalone="no"?>
<!DOCTYPE svg PUBLIC "-//W3C//DTD SVG 20010904//EN"
              "http://www.w3.org/TR/2001/REC-SVG-20010904/DTD/svg10.dtd">

<svg xmlns="http://www.w3.org/2000/svg"
     width="8.33333in" height="5.55556in"
     viewBox="0 0 600 230">
  <path id="Selection #1"
        fill="#ece7e7" fill-opacity="0.1" 
        d="M 600.00,0.00
           C 600.00,0.00 600.00,400.00 600.00,400.00
             600.00,400.00 0.00,400.00 0.00,400.00
             0.00,400.00 0.00,0.00 0.00,0.00
             0.00,0.00 600.00,0.00 600.00,0.00 Z
           M 32.19,23.99
           C 25.90,28.48 25.28,39.18 31.34,44.15
             34.19,46.49 38.37,47.22 41.98,46.94
             43.44,46.83 47.47,45.98 45.83,43.58
             44.28,41.31 40.45,44.04 36.28,39.77
             32.35,35.75 33.00,29.76 38.05,27.02
             40.44,25.73 44.30,26.00 47.00,26.00
             47.00,26.00 47.00,22.00 47.00,22.00
             41.52,21.02 37.06,20.51 32.19,23.99 Z
           M 155.74,26.26
           C 157.60,25.66 158.84,21.99 154.38,21.72
             150.87,24.61 153.79,26.89 155.74,26.26 Z
           M 327.00,38.00
           C 327.00,39.99 326.77,43.81 328.02,45.40
             329.71,47.53 335.52,47.11 338.00,46.83
             352.80,45.17 353.48,30.52 345.89,24.65
             343.72,22.97 340.68,21.97 338.00,21.47
             333.65,20.65 331.21,21.24 327.00,22.00
             327.00,22.00 327.00,38.00 327.00,38.00 Z
           M 540.74,26.26
           C 542.60,25.66 543.84,21.99 539.38,21.72
             535.87,24.61 538.79,26.89 540.74,26.26 Z
           M 131.00,38.00
           C 131.00,40.20 130.51,47.62 134.74,46.26
             137.49,45.37 137.00,40.27 137.00,38.00
             137.01,35.02 137.81,24.76 135.42,22.91
             134.35,22.33 133.39,22.75 133.26,22.91
             129.68,25.53 130.99,33.65 131.00,38.00 Z
           M 139.00,30.00
           C 139.00,30.00 139.00,32.00 139.00,32.00
             144.19,37.56 140.51,39.39 143.17,43.85
             144.95,46.83 148.11,46.94 148.43,43.85
             148.43,43.85 147.00,33.00 147.00,33.00
             147.00,33.00 150.00,33.00 150.00,33.00
             150.00,33.00 150.00,29.00 150.00,29.00
             150.00,29.00 146.00,24.00 146.00,24.00
             146.00,24.00 139.00,30.00 139.00,30.00 Z
           M 489.00,30.00
           C 489.00,30.00 489.00,32.00 489.00,32.00
             494.19,37.56 490.51,39.39 493.17,43.85
             494.95,46.83 498.11,46.94 498.43,43.85
             498.43,43.85 497.00,33.00 497.00,33.00
             497.00,33.00 500.00,33.00 500.00,33.00
             500.00,33.00 500.00,29.00 500.00,29.00
             500.00,29.00 496.00,24.00 496.00,24.00
             496.00,24.00 489.00,30.00 489.00,30.00 Z
           M 524.00,30.00
           C 524.00,30.00 524.00,32.00 524.00,32.00
             529.19,37.56 525.51,39.39 528.17,43.85
             529.95,46.83 533.11,46.94 533.43,43.85
             533.43,43.85 532.00,33.00 532.00,33.00
             532.00,33.00 535.00,33.00 535.00,33.00
             535.00,33.00 535.00,29.00 535.00,29.00
             535.00,29.00 531.00,24.00 531.00,24.00
             531.00,24.00 524.00,30.00 524.00,30.00 Z
           M 333.00,31.00
           C 333.13,24.46 336.67,21.93 341.57,27.28
             345.46,31.51 344.35,40.67 338.89,43.15
             337.03,43.99 334.99,43.94 333.00,44.00
             333.00,44.00 333.00,31.00 333.00,31.00 Z
           M 61.98,46.57
           C 69.08,44.61 70.85,35.38 65.61,30.43
             62.76,27.74 59.58,27.92 56.00,28.43
             43.51,33.50 49.84,49.92 61.98,46.57 Z
           M 77.00,43.00
           C 77.04,40.07 77.16,34.70 81.00,34.05
             82.23,33.84 83.12,34.38 83.83,35.36
             85.76,38.04 84.24,43.21 86.02,45.38
             87.46,47.14 89.87,46.62 90.69,43.85
             92.02,39.34 91.00,30.69 85.95,28.72
             83.51,27.82 81.43,28.57 79.00,28.72
             77.13,28.79 74.36,28.11 73.02,29.65
             71.38,31.55 72.00,43.90 72.00,47.00
             72.00,47.00 77.00,47.00 77.00,47.00
             77.00,47.00 77.00,43.00 77.00,43.00 Z
           M 94.62,35.79
           C 95.52,38.13 99.88,40.47 102.00,42.00
             102.00,42.00 94.00,43.00 94.00,43.00
             96.76,50.89 108.97,45.99 106.24,39.21
             105.28,36.81 101.14,34.56 99.00,33.00
             99.00,33.00 106.00,31.00 106.00,31.00
             106.00,31.00 106.00,29.00 106.00,29.00
             101.37,27.70 91.75,28.35 94.62,35.79 Z
           M 110.98,29.84
           C 110.20,30.70 107.35,44.39 115.04,46.57
             117.41,47.24 126.39,47.39 127.98,45.40
             129.83,43.08 129.71,30.66 126.74,29.25
             124.49,28.18 123.44,30.29 123.13,32.11
             122.67,34.84 123.67,41.52 119.05,41.52
             113.05,41.52 117.12,31.95 112.84,29.17
             112.80,29.18 111.82,28.91 110.98,29.84 Z
           M 167.00,43.00
           C 167.04,40.07 167.16,34.70 171.00,34.05
             172.23,33.84 173.12,34.38 173.83,35.36
             175.76,38.04 174.24,43.21 176.02,45.38
             177.46,47.14 179.87,46.62 180.69,43.85
             182.02,39.34 181.00,30.69 175.95,28.72
             173.51,27.82 171.43,28.57 169.00,28.72
             167.13,28.79 164.36,28.11 163.02,29.65
             161.38,31.55 162.00,43.90 162.00,47.00
             162.00,47.00 167.00,47.00 167.00,47.00
             167.00,47.00 167.00,43.00 167.00,43.00 Z
           M 203.00,38.00
           C 202.99,34.77 203.58,30.12 199.85,28.50
             198.83,28.34 196.18,28.30 195.00,28.50
             191.07,28.18 188.08,28.62 185.60,32.11
             182.20,36.88 184.28,44.75 190.04,46.24
             192.63,47.26 194.53,46.69 197.00,46.24
             194.00,50.69 192.24,49.98 187.00,50.00
             187.00,50.00 187.00,54.00 187.00,54.00
             201.75,56.51 203.02,50.64 203.00,38.00 Z
           M 365.98,46.57
           C 373.08,44.61 374.85,35.38 369.61,30.43
             366.76,27.74 363.58,27.92 360.00,28.43
             347.51,33.50 353.84,49.92 365.98,46.57 Z
           M 379.23,30.88
           C 374.53,34.55 375.21,41.98 380.06,45.26
             383.02,47.27 386.59,46.99 390.00,47.00
             390.00,47.00 390.00,43.00 390.00,43.00
             380.06,41.85 378.91,33.66 390.00,33.00
             390.00,33.00 390.00,29.00 390.00,29.00
             386.02,28.47 382.63,28.21 379.23,30.88 Z
           M 393.98,29.84
           C 393.20,30.70 390.35,44.39 398.04,46.57
             400.41,47.24 409.39,47.39 410.98,45.40
             412.83,43.08 412.71,30.66 409.74,29.25
             407.49,28.18 406.44,30.29 406.13,32.11
             405.67,34.84 406.67,41.52 402.05,41.52
             396.05,41.52 400.12,31.95 395.84,29.17
             395.80,29.18 394.82,28.91 393.98,29.84 Z
           M 426.96,28.36
           C 424.91,27.93 416.55,28.44 415.60,30.33
             414.62,32.25 415.00,44.07 415.00,47.00
             415.00,47.00 420.08,47.00 420.08,47.00
             420.08,47.00 420.08,41.00 420.08,41.00
             420.08,41.00 420.08,37.02 420.08,37.02
             421.14,32.17 424.63,31.57 426.26,35.15
             427.37,37.58 426.72,41.84 427.31,43.85
             427.71,45.18 428.44,46.37 430.00,46.37
             434.12,46.37 432.55,38.82 433.31,36.06
             433.74,34.53 434.82,32.61 436.74,33.34
             439.96,34.55 438.53,41.19 439.31,43.85
             439.86,45.70 441.51,47.26 443.42,45.92
             445.43,44.51 445.09,39.18 444.82,37.00
             443.70,28.11 438.16,25.95 431.00,31.00
             429.56,29.58 429.15,28.81 426.96,28.36 Z
           M 459.00,28.91
           C 452.56,26.60 446.42,32.50 447.38,39.00
             448.68,47.74 463.47,50.81 464.00,41.00
             459.00,42.11 456.09,44.09 453.00,39.00
             453.00,39.00 466.00,38.00 466.00,38.00
             464.65,33.83 463.56,30.54 459.00,28.91 Z
           M 473.00,43.00
           C 473.04,40.07 473.16,34.70 477.00,34.05
             478.23,33.84 479.12,34.38 479.83,35.36
             481.76,38.04 480.24,43.21 482.02,45.38
             483.46,47.14 485.87,46.62 486.69,43.85
             488.02,39.34 487.00,30.69 481.95,28.72
             479.51,27.82 477.43,28.57 475.00,28.72
             473.13,28.79 470.36,28.11 469.02,29.65
             467.38,31.55 468.00,43.90 468.00,47.00
             468.00,47.00 473.00,47.00 473.00,47.00
             473.00,47.00 473.00,43.00 473.00,43.00 Z
           M 506.21,45.26
           C 508.87,47.20 511.02,46.68 514.00,46.59
             515.76,46.54 519.01,46.96 520.34,45.94
             522.85,44.15 522.62,31.92 520.34,30.01
             519.04,29.00 511.77,28.47 510.01,28.49
             501.50,31.02 499.88,40.65 506.21,45.26 Z
           M 558.98,46.57
           C 566.08,44.61 567.85,35.38 562.61,30.43
             559.76,27.74 556.58,27.92 553.00,28.43
             540.51,33.50 546.84,49.92 558.98,46.57 Z
           M 574.00,43.00
           C 574.04,40.07 574.16,34.70 578.00,34.05
             579.23,33.84 580.12,34.38 580.83,35.36
             582.76,38.04 581.24,43.21 583.02,45.38
             584.46,47.14 586.87,46.62 587.69,43.85
             589.02,39.34 588.00,30.69 582.95,28.72
             580.51,27.82 578.43,28.57 576.00,28.72
             574.13,28.79 571.36,28.11 570.02,29.65
             568.38,31.55 569.00,43.90 569.00,47.00
             569.00,47.00 574.00,47.00 574.00,47.00
             574.00,47.00 574.00,43.00 574.00,43.00 Z
           M 152.23,41.98
           C 152.62,44.07 154.03,47.19 156.73,45.83
             159.45,44.46 161.18,31.28 155.12,29.91
             151.34,32.16 151.46,37.95 152.23,41.98 Z
           M 537.23,41.98
           C 537.62,44.07 539.03,47.19 541.73,45.83
             544.45,44.46 546.18,31.28 540.12,29.91
             536.34,32.16 536.46,37.95 537.23,41.98 Z
           M 59.82,43.04
           C 55.36,44.22 52.55,35.42 58.21,31.96
             65.51,32.28 63.24,42.13 59.82,43.04 Z
           M 363.82,43.04
           C 359.36,44.22 356.55,35.42 362.21,31.96
             369.51,32.28 367.24,42.13 363.82,43.04 Z
           M 556.82,43.04
           C 552.36,44.22 549.55,35.42 555.21,31.96
             562.51,32.28 560.24,42.13 556.82,43.04 Z
           M 194.70,42.87
           C 190.76,45.00 186.48,38.42 191.43,33.04
             199.19,30.58 197.49,41.36 194.70,42.87 Z
           M 461.00,36.00
           C 461.00,36.00 453.00,36.00 453.00,36.00
             454.90,30.75 458.56,31.68 461.00,36.00 Z
           M 514.27,42.36
           C 510.57,45.85 505.45,39.00 509.74,33.00
             517.47,29.93 516.75,40.02 514.27,42.36 Z
           M 438.84,81.06
           C 438.02,78.64 435.85,76.84 434.02,79.37
             432.87,80.95 433.02,84.11 433.00,86.00
             418.70,82.67 417.95,97.09 422.43,101.57
             425.62,104.76 434.47,103.94 438.84,104.00
             438.84,104.00 438.84,81.06 438.84,81.06 Z
           M 9.54,86.98
           C 10.16,90.72 13.18,91.96 15.94,93.78
             17.11,94.55 19.42,95.86 18.66,97.63
             17.77,99.72 12.94,98.96 9.00,100.00
             13.97,109.05 27.73,104.12 25.67,95.02
             24.69,90.65 18.46,87.81 15.00,85.00
             15.00,85.00 25.00,83.00 25.00,83.00
             21.82,73.68 8.27,79.43 9.54,86.98 Z
           M 52.93,108.38
           C 53.94,107.04 53.32,104.77 53.68,103.00
             54.58,98.68 57.57,98.14 56.91,90.00
             56.69,87.39 56.14,85.21 54.49,83.11
             53.03,81.24 51.19,80.01 49.00,79.15
             31.69,72.34 22.40,97.40 38.00,103.44
             41.07,104.62 43.78,104.85 47.00,105.00
             47.70,107.19 50.34,111.83 52.93,108.38 Z
           M 66.00,85.00
           C 65.97,83.33 66.13,80.30 64.45,79.32
             62.34,78.09 60.80,80.28 60.16,82.06
             60.16,82.06 60.16,96.00 60.16,96.00
             60.04,102.43 60.16,103.87 67.00,103.92
             67.00,103.92 72.94,103.92 72.94,103.92
             74.45,103.60 77.14,102.60 75.83,100.54
             74.52,98.48 68.26,99.00 66.00,99.00
             66.00,99.00 66.00,85.00 66.00,85.00 Z
           M 212.74,83.26
           C 214.60,82.66 215.84,78.99 211.38,78.72
             207.87,81.61 210.79,83.89 212.74,83.26 Z
           M 243.74,83.26
           C 245.60,82.66 246.84,78.99 242.38,78.72
             238.87,81.61 241.79,83.89 243.74,83.26 Z
           M 384.33,88.00
           C 384.33,88.00 380.24,82.11 380.24,82.11
             379.53,81.26 378.76,80.38 377.82,79.78
             368.98,74.14 370.97,92.05 371.00,96.00
             371.01,98.00 371.17,105.91 375.42,102.92
             377.97,101.13 376.23,94.22 378.00,88.00
             378.00,88.00 382.40,96.00 382.40,96.00
             382.40,96.00 385.61,100.85 385.61,100.85
             388.13,103.71 392.50,105.21 394.40,100.85
             395.29,98.81 395.01,90.67 395.00,88.00
             395.00,85.80 395.49,78.38 391.26,79.74
             387.74,80.87 389.86,88.44 388.00,95.00
             386.89,92.11 386.02,90.59 384.33,88.00 Z
           M 472.34,98.98
           C 473.21,96.61 473.52,82.60 472.34,80.43
             471.19,77.98 465.12,75.96 463.00,82.00
             463.00,82.00 468.00,83.00 468.00,83.00
             468.00,90.59 469.38,95.73 462.00,100.00
             464.20,106.27 470.29,103.93 472.34,98.98 Z
           M 190.86,88.00
           C 189.77,84.25 188.32,78.39 183.10,79.37
             181.43,79.68 180.42,80.63 179.74,82.15
             178.69,84.46 178.99,92.10 179.00,95.00
             179.00,96.94 178.77,100.86 180.02,102.38
             183.70,106.89 184.95,99.11 185.00,97.00
             185.08,93.43 185.00,92.52 186.00,89.00
             186.56,93.00 188.37,105.58 194.78,103.34
             198.21,102.14 200.43,90.68 202.00,87.00
             202.00,87.00 202.00,104.00 202.00,104.00
             203.53,103.73 204.89,103.79 205.98,102.40
             207.53,100.44 207.02,90.87 207.00,88.00
             206.99,86.01 207.12,83.02 205.98,81.31
             205.24,80.21 204.25,79.61 202.96,79.37
             198.08,78.47 197.03,83.49 196.00,87.00
             196.00,87.00 193.00,96.00 193.00,96.00
             193.00,96.00 190.86,88.00 190.86,88.00 Z
           M 46.87,99.97
           C 37.78,105.06 33.23,89.46 40.23,83.02
             52.52,78.70 53.58,96.22 46.87,99.97 Z
           M 224.00,100.00
           C 224.04,97.07 224.16,91.70 228.00,91.05
             229.23,90.84 230.12,91.38 230.83,92.36
             232.76,95.04 231.24,100.21 233.02,102.38
             234.46,104.14 236.87,103.62 237.69,100.85
             239.02,96.34 238.00,87.69 232.95,85.72
             230.51,84.82 228.43,85.57 226.00,85.72
             224.13,85.79 221.36,85.11 220.02,86.65
             218.38,88.55 219.00,100.90 219.00,104.00
             219.00,104.00 224.00,104.00 224.00,104.00
             224.00,104.00 224.00,100.00 224.00,100.00 Z
           M 255.00,100.00
           C 255.04,97.07 255.16,91.70 259.00,91.05
             260.23,90.84 261.12,91.38 261.83,92.36
             263.76,95.04 262.24,100.21 264.02,102.38
             265.46,104.14 267.87,103.62 268.69,100.85
             270.02,96.34 269.00,87.69 263.95,85.72
             261.51,84.82 259.43,85.57 257.00,85.72
             255.13,85.79 252.36,85.11 251.02,86.65
             249.38,88.55 250.00,100.90 250.00,104.00
             250.00,104.00 255.00,104.00 255.00,104.00
             255.00,104.00 255.00,100.00 255.00,100.00 Z
           M 291.00,95.00
           C 290.99,91.77 291.58,87.12 287.85,85.50
             286.83,85.34 284.18,85.30 283.00,85.50
             279.07,85.18 276.08,85.62 273.60,89.11
             270.20,93.88 272.28,101.75 278.04,103.24
             280.63,104.26 282.53,103.69 285.00,103.24
             282.00,107.69 280.24,106.98 275.00,107.00
             275.00,107.00 275.00,111.00 275.00,111.00
             289.75,113.51 291.02,107.64 291.00,95.00 Z
           M 409.98,103.57
           C 417.08,101.61 418.85,92.38 413.61,87.43
             410.76,84.74 407.58,84.92 404.00,85.43
             391.51,90.50 397.84,106.92 409.98,103.57 Z
           M 453.00,85.91
           C 446.56,83.60 440.42,89.50 441.38,96.00
             442.68,104.74 457.47,107.81 458.00,98.00
             453.00,99.11 450.09,101.09 447.00,96.00
             447.00,96.00 460.00,95.00 460.00,95.00
             458.65,90.83 457.56,87.54 453.00,85.91 Z
           M 476.62,92.79
           C 477.52,95.13 481.88,97.47 484.00,99.00
             484.00,99.00 476.00,100.00 476.00,100.00
             478.76,107.89 490.97,102.99 488.24,96.21
             487.28,93.81 483.14,91.56 481.00,90.00
             481.00,90.00 488.00,88.00 488.00,88.00
             488.00,88.00 488.00,86.00 488.00,86.00
             483.37,84.70 473.75,85.35 476.62,92.79 Z
           M 209.23,98.98
           C 209.62,101.07 211.03,104.19 213.73,102.83
             216.45,101.46 218.18,88.28 212.12,86.91
             208.34,89.16 208.46,94.95 209.23,98.98 Z
           M 240.23,98.98
           C 240.62,101.07 242.03,104.19 244.73,102.83
             247.45,101.46 249.18,88.28 243.12,86.91
             239.34,89.16 239.46,94.95 240.23,98.98 Z
           M 407.82,100.04
           C 403.36,101.22 400.55,92.42 406.21,88.96
             413.51,89.28 411.24,99.13 407.82,100.04 Z
           M 282.70,99.87
           C 278.76,102.00 274.48,95.42 279.43,90.04
             287.19,87.58 285.49,98.36 282.70,99.87 Z
           M 430.69,99.83
           C 427.15,101.50 422.36,95.30 427.31,90.04
             435.41,87.57 433.33,98.58 430.69,99.83 Z
           M 455.00,93.00
           C 455.00,93.00 447.00,93.00 447.00,93.00
             448.90,87.75 452.56,88.68 455.00,93.00 Z
           M 137.34,155.98
           C 138.21,153.61 138.52,139.60 137.34,137.43
             136.19,134.98 130.12,132.96 128.00,139.00
             128.00,139.00 133.00,140.00 133.00,140.00
             133.00,147.59 134.38,152.73 127.00,157.00
             129.20,163.27 135.29,160.93 137.34,155.98 Z
           M 349.33,145.00
           C 349.33,145.00 345.24,139.11 345.24,139.11
             344.53,138.26 343.76,137.38 342.82,136.78
             333.98,131.14 335.97,149.05 336.00,153.00
             336.01,155.00 336.17,162.91 340.42,159.92
             342.97,158.13 341.23,151.22 343.00,145.00
             343.00,145.00 347.40,153.00 347.40,153.00
             347.40,153.00 350.61,157.85 350.61,157.85
             353.13,160.71 357.50,162.21 359.40,157.85
             360.29,155.81 360.01,147.67 360.00,145.00
             360.00,142.80 360.49,135.38 356.26,136.74
             352.74,137.87 354.86,145.44 353.00,152.00
             351.89,149.11 351.02,147.59 349.33,145.00 Z
           M 463.00,152.00
           C 463.00,153.99 462.77,157.81 464.02,159.40
             465.71,161.53 471.52,161.11 474.00,160.83
             488.80,159.17 489.48,144.52 481.89,138.65
             479.72,136.97 476.68,135.97 474.00,135.47
             469.65,134.65 467.21,135.24 463.00,136.00
             463.00,136.00 463.00,152.00 463.00,152.00 Z
           M 490.00,152.00
           C 490.00,153.99 489.77,157.81 491.02,159.40
             492.71,161.53 498.52,161.11 501.00,160.83
             515.80,159.17 516.48,144.52 508.89,138.65
             506.72,136.97 503.68,135.97 501.00,135.47
             496.65,134.65 494.21,135.24 490.00,136.00
             490.00,136.00 490.00,152.00 490.00,152.00 Z
           M 11.31,136.60
           C 8.63,137.92 9.02,141.48 9.00,144.00
             8.98,147.26 8.14,158.04 10.60,159.98
             12.15,161.20 16.06,161.03 18.00,160.99
             28.84,160.72 32.60,152.87 25.00,148.00
             34.98,133.85 13.95,135.30 11.31,136.60 Z
           M 44.98,151.40
           C 51.24,149.00 50.95,140.62 47.57,137.74
             45.28,135.79 40.88,135.90 38.00,136.02
             35.86,136.11 33.68,136.11 32.60,138.31
             31.67,140.20 31.95,151.24 32.00,154.00
             32.04,156.13 33.31,163.88 36.98,159.38
             38.23,157.85 37.99,153.94 38.00,152.00
             40.03,151.99 43.12,152.12 44.98,151.40 Z
           M 63.86,145.00
           C 62.77,141.25 61.32,135.39 56.10,136.37
             54.43,136.68 53.42,137.63 52.74,139.15
             51.69,141.46 51.99,149.10 52.00,152.00
             52.00,153.94 51.77,157.86 53.02,159.38
             56.70,163.89 57.95,156.11 58.00,154.00
             58.08,150.43 58.00,149.52 59.00,146.00
             59.56,150.00 61.37,162.58 67.78,160.34
             71.21,159.14 73.43,147.68 75.00,144.00
             75.00,144.00 75.00,161.00 75.00,161.00
             76.53,160.73 77.89,160.79 78.98,159.40
             80.53,157.44 80.02,147.87 80.00,145.00
             79.99,143.01 80.12,140.02 78.98,138.31
             78.24,137.21 77.25,136.61 75.96,136.37
             71.08,135.47 70.03,140.49 69.00,144.00
             69.00,144.00 66.00,153.00 66.00,153.00
             66.00,153.00 63.86,145.00 63.86,145.00 Z
           M 442.31,136.60
           C 439.63,137.92 440.02,141.48 440.00,144.00
             439.98,147.26 439.14,158.04 441.60,159.98
             443.15,161.20 447.06,161.03 449.00,160.99
             459.84,160.72 463.60,152.87 456.00,148.00
             465.98,133.85 444.95,135.30 442.31,136.60 Z
           M 382.00,144.00
           C 382.00,144.00 382.00,146.00 382.00,146.00
             387.19,151.56 383.51,153.39 386.17,157.85
             387.95,160.83 391.11,160.94 391.43,157.85
             391.43,157.85 390.00,147.00 390.00,147.00
             390.00,147.00 393.00,147.00 393.00,147.00
             393.00,147.00 393.00,143.00 393.00,143.00
             393.00,143.00 389.00,138.00 389.00,138.00
             389.00,138.00 382.00,144.00 382.00,144.00 Z
           M 38.00,149.00
           C 38.00,149.00 38.00,138.00 38.00,138.00
             47.48,138.78 47.48,148.22 38.00,149.00 Z
           M 469.00,145.00
           C 469.13,138.46 472.67,135.93 477.57,141.28
             481.46,145.51 480.35,154.67 474.89,157.15
             473.03,157.99 470.99,157.94 469.00,158.00
             469.00,158.00 469.00,145.00 469.00,145.00 Z
           M 496.00,145.00
           C 496.13,138.46 499.67,135.93 504.57,141.28
             508.46,145.51 507.35,154.67 501.89,157.15
             500.03,157.99 497.99,157.94 496.00,158.00
             496.00,158.00 496.00,145.00 496.00,145.00 Z
           M 15.00,146.00
           C 15.00,146.00 16.00,139.00 16.00,139.00
             23.20,140.95 23.40,145.73 15.00,146.00 Z
           M 446.00,146.00
           C 446.00,146.00 447.00,139.00 447.00,139.00
             454.20,140.95 454.40,145.73 446.00,146.00 Z
           M 144.21,159.26
           C 146.87,161.20 149.02,160.68 152.00,160.59
             153.76,160.54 157.01,160.96 158.34,159.94
             160.85,158.15 160.62,145.92 158.34,144.01
             157.04,143.00 149.77,142.47 148.01,142.49
             139.50,145.02 137.88,154.65 144.21,159.26 Z
           M 164.43,143.40
           C 162.35,144.47 162.94,147.21 163.39,149.00
             164.33,152.77 166.20,160.55 171.00,160.55
             177.11,160.55 179.78,147.01 179.22,145.19
             177.63,140.01 173.94,145.75 173.16,148.02
             173.16,148.02 171.00,154.00 171.00,154.00
             170.30,151.57 168.69,141.20 164.43,143.40 Z
           M 186.21,159.26
           C 188.87,161.20 191.02,160.68 194.00,160.59
             195.76,160.54 199.01,160.96 200.34,159.94
             202.85,158.15 202.62,145.92 200.34,144.01
             199.04,143.00 191.77,142.47 190.01,142.49
             181.50,145.02 179.88,154.65 186.21,159.26 Z
           M 374.00,142.91
           C 367.56,140.60 361.42,146.50 362.38,153.00
             363.68,161.74 378.47,164.81 379.00,155.00
             374.00,156.11 371.09,158.09 368.00,153.00
             368.00,153.00 381.00,152.00 381.00,152.00
             379.65,147.83 378.56,144.54 374.00,142.91 Z
           M 152.27,156.36
           C 148.57,159.85 143.45,153.00 147.74,147.00
             155.47,143.93 154.75,154.02 152.27,156.36 Z
           M 194.27,156.36
           C 190.57,159.85 185.45,153.00 189.74,147.00
             197.47,143.93 196.75,154.02 194.27,156.36 Z
           M 376.00,150.00
           C 376.00,150.00 368.00,150.00 368.00,150.00
             369.90,144.75 373.56,145.68 376.00,150.00 Z
           M 15.16,152.15
           C 17.42,145.10 27.51,154.32 18.94,156.84
             17.75,157.01 16.23,156.96 15.16,156.84
             15.02,155.74 14.97,153.30 15.16,152.15 Z
           M 446.16,152.15
           C 448.42,145.10 458.51,154.32 449.94,156.84
             448.75,157.01 447.23,156.96 446.16,156.84
             446.02,155.74 445.97,153.30 446.16,152.15 Z
           M 330.69,159.83
           C 332.78,158.76 333.12,155.77 329.09,154.91
             324.25,157.71 328.36,161.02 330.69,159.83 Z
           M 9.00,209.00
           C 9.00,210.99 8.77,214.81 10.02,216.40
             11.71,218.53 17.52,218.11 20.00,217.83
             34.80,216.17 35.48,201.52 27.89,195.65
             25.72,193.97 22.68,192.97 20.00,192.47
             15.65,191.65 13.21,192.24 9.00,193.00
             9.00,193.00 9.00,209.00 9.00,209.00 Z
           M 220.74,197.26
           C 222.60,196.66 223.84,192.99 219.38,192.72
             215.87,195.61 218.79,197.89 220.74,197.26 Z
           M 265.54,200.98
           C 266.16,204.72 269.18,205.96 271.94,207.78
             273.11,208.55 275.42,209.86 274.66,211.63
             273.77,213.72 268.94,212.96 265.00,214.00
             269.97,223.05 283.73,218.12 281.67,209.02
             280.69,204.65 274.46,201.81 271.00,199.00
             271.00,199.00 281.00,197.00 281.00,197.00
             277.82,187.68 264.27,193.43 265.54,200.98 Z
           M 325.74,197.26
           C 327.60,196.66 328.84,192.99 324.38,192.72
             320.87,195.61 323.79,197.89 325.74,197.26 Z
           M 486.00,193.00
           C 487.48,197.21 488.83,196.85 493.00,197.00
             493.00,197.00 493.00,211.00 493.00,211.00
             493.04,213.08 492.92,217.37 496.00,217.37
             498.39,217.37 498.78,214.79 498.97,212.98
             498.97,212.98 498.97,197.00 498.97,197.00
             503.17,196.85 504.52,197.21 506.00,193.00
             500.00,191.54 492.00,191.54 486.00,193.00 Z
           M 509.00,209.00
           C 509.00,210.99 508.77,214.81 510.02,216.40
             511.71,218.53 517.52,218.11 520.00,217.83
             534.80,216.17 535.48,201.52 527.89,195.65
             525.72,193.97 522.68,192.97 520.00,192.47
             515.65,191.65 513.21,192.24 509.00,193.00
             509.00,193.00 509.00,209.00 509.00,209.00 Z
           M 536.00,209.00
           C 536.00,210.99 535.77,214.81 537.02,216.40
             538.71,218.53 544.52,218.11 547.00,217.83
             561.80,216.17 562.48,201.52 554.89,195.65
             552.72,193.97 549.68,192.97 547.00,192.47
             542.65,191.65 540.21,192.24 536.00,193.00
             536.00,193.00 536.00,209.00 536.00,209.00 Z
           M 118.28,212.59
           C 119.83,214.04 120.44,217.37 123.00,217.37
             126.31,217.37 125.72,213.05 125.24,211.00
             124.58,208.23 120.73,197.20 119.16,195.31
             115.05,190.39 110.72,194.50 109.02,199.00
             109.02,199.00 106.67,206.00 106.67,206.00
             105.87,208.40 103.42,214.18 105.06,216.38
             108.39,220.86 110.75,213.14 111.00,211.00
             113.51,211.03 116.30,210.76 118.28,212.59 Z
           M 173.00,209.00
           C 173.00,211.20 172.51,218.62 176.74,217.26
             179.49,216.37 179.00,211.27 179.00,209.00
             179.01,206.02 179.81,195.76 177.42,193.91
             176.35,193.33 175.39,193.75 175.26,193.91
             171.68,196.53 172.99,204.65 173.00,209.00 Z
           M 57.00,201.00
           C 57.00,201.00 57.00,203.00 57.00,203.00
             62.19,208.56 58.51,210.39 61.17,214.85
             62.95,217.83 66.11,217.94 66.43,214.85
             66.43,214.85 65.00,204.00 65.00,204.00
             65.00,204.00 68.00,204.00 68.00,204.00
             68.00,204.00 68.00,200.00 68.00,200.00
             68.00,200.00 64.00,195.00 64.00,195.00
             64.00,195.00 57.00,201.00 57.00,201.00 Z
           M 15.00,202.00
           C 15.13,195.46 18.67,192.93 23.57,198.28
             27.46,202.51 26.35,211.67 20.89,214.15
             19.03,214.99 16.99,214.94 15.00,215.00
             15.00,215.00 15.00,202.00 15.00,202.00 Z
           M 515.00,202.00
           C 515.13,195.46 518.67,192.93 523.57,198.28
             527.46,202.51 526.35,211.67 520.89,214.15
             519.03,214.99 516.99,214.94 515.00,215.00
             515.00,215.00 515.00,202.00 515.00,202.00 Z
           M 542.00,202.00
           C 542.13,195.46 545.67,192.93 550.57,198.28
             554.46,202.51 553.35,211.67 547.89,214.15
             546.03,214.99 543.99,214.94 542.00,215.00
             542.00,215.00 542.00,202.00 542.00,202.00 Z
           M 39.21,216.26
           C 41.87,218.20 44.02,217.68 47.00,217.59
             48.76,217.54 52.01,217.96 53.34,216.94
             55.85,215.15 55.62,202.92 53.34,201.01
             52.04,200.00 44.77,199.47 43.01,199.49
             34.50,202.02 32.88,211.65 39.21,216.26 Z
           M 74.21,216.26
           C 76.87,218.20 79.02,217.68 82.00,217.59
             83.76,217.54 87.01,217.96 88.34,216.94
             90.85,215.15 90.62,202.92 88.34,201.01
             87.04,200.00 79.77,199.47 78.01,199.49
             69.50,202.02 67.88,211.65 74.21,216.26 Z
           M 135.00,214.00
           C 135.04,211.07 135.16,205.70 139.00,205.05
             140.23,204.84 141.12,205.38 141.83,206.36
             143.76,209.04 142.24,214.21 144.02,216.38
             145.46,218.14 147.87,217.62 148.69,214.85
             150.02,210.34 149.00,201.69 143.95,199.72
             141.51,198.82 139.43,199.57 137.00,199.72
             135.13,199.79 132.36,199.11 131.02,200.65
             129.38,202.55 130.00,214.90 130.00,218.00
             130.00,218.00 135.00,218.00 135.00,218.00
             135.00,218.00 135.00,214.00 135.00,214.00 Z
           M 155.21,216.26
           C 157.87,218.20 160.02,217.68 163.00,217.59
             164.76,217.54 168.01,217.96 169.34,216.94
             171.85,215.15 171.62,202.92 169.34,201.01
             168.04,200.00 160.77,199.47 159.01,199.49
             150.50,202.02 148.88,211.65 155.21,216.26 Z
           M 183.59,200.17
           C 180.41,202.13 185.32,209.80 185.99,215.00
             186.60,219.62 183.71,220.91 181.00,224.00
             190.70,229.02 193.15,220.51 195.67,213.00
             195.67,213.00 198.43,204.02 198.43,204.02
             198.67,202.21 198.14,198.66 195.45,200.17
             193.39,201.32 192.52,207.61 190.00,212.00
             189.80,209.73 188.07,197.41 183.59,200.17 Z
           M 202.62,206.79
           C 203.52,209.13 207.88,211.47 210.00,213.00
             210.00,213.00 202.00,214.00 202.00,214.00
             204.76,221.89 216.97,216.99 214.24,210.21
             213.28,207.81 209.14,205.56 207.00,204.00
             207.00,204.00 214.00,202.00 214.00,202.00
             214.00,202.00 214.00,200.00 214.00,200.00
             209.37,198.70 199.75,199.35 202.62,206.79 Z
           M 227.62,206.79
           C 228.52,209.13 232.88,211.47 235.00,213.00
             235.00,213.00 227.00,214.00 227.00,214.00
             229.76,221.89 241.97,216.99 239.24,210.21
             238.28,207.81 234.14,205.56 232.00,204.00
             232.00,204.00 239.00,202.00 239.00,202.00
             239.00,202.00 239.00,200.00 239.00,200.00
             234.37,198.70 224.75,199.35 227.62,206.79 Z
           M 302.35,202.39
           C 298.58,198.16 291.24,199.13 286.00,199.00
             286.00,199.00 286.00,219.00 286.00,219.00
             286.04,220.67 285.92,223.80 287.54,224.83
             291.34,227.23 290.99,218.48 291.00,217.00
             305.03,220.37 307.09,207.72 302.35,202.39 Z
           M 308.36,201.47
           C 307.79,202.95 307.83,212.07 308.36,213.94
             308.40,215.45 309.40,218.14 311.46,216.83
             314.03,215.20 311.86,210.10 314.73,206.41
             317.60,202.73 318.96,205.00 320.00,199.00
             317.71,199.23 309.55,199.63 308.36,201.47 Z
           M 337.00,214.00
           C 337.04,211.07 337.16,205.70 341.00,205.05
             342.23,204.84 343.12,205.38 343.83,206.36
             345.76,209.04 344.24,214.21 346.02,216.38
             347.46,218.14 349.87,217.62 350.69,214.85
             352.02,210.34 351.00,201.69 345.95,199.72
             343.51,198.82 341.43,199.57 339.00,199.72
             337.13,199.79 334.36,199.11 333.02,200.65
             331.38,202.55 332.00,214.90 332.00,218.00
             332.00,218.00 337.00,218.00 337.00,218.00
             337.00,218.00 337.00,214.00 337.00,214.00 Z
           M 373.00,209.00
           C 372.99,205.77 373.58,201.12 369.85,199.50
             368.83,199.34 366.18,199.30 365.00,199.50
             361.07,199.18 358.08,199.62 355.60,203.11
             352.20,207.88 354.28,215.75 360.04,217.24
             362.63,218.26 364.53,217.69 367.00,217.24
             364.00,221.69 362.24,220.98 357.00,221.00
             357.00,221.00 357.00,225.00 357.00,225.00
             371.75,227.51 373.02,221.64 373.00,209.00 Z
           M 217.23,212.98
           C 217.62,215.07 219.03,218.19 221.73,216.83
             224.45,215.46 226.18,202.28 220.12,200.91
             216.34,203.16 216.46,208.95 217.23,212.98 Z
           M 322.23,212.98
           C 322.62,215.07 324.03,218.19 326.73,216.83
             329.45,215.46 331.18,202.28 325.12,200.91
             321.34,203.16 321.46,208.95 322.23,212.98 Z
           M 47.27,213.36
           C 43.57,216.85 38.45,210.00 42.74,204.00
             50.47,200.93 49.75,211.02 47.27,213.36 Z
           M 82.27,213.36
           C 78.57,216.85 73.45,210.00 77.74,204.00
             85.47,200.93 84.75,211.02 82.27,213.36 Z
           M 163.27,213.36
           C 159.57,216.85 154.45,210.00 158.74,204.00
             166.47,200.93 165.75,211.02 163.27,213.36 Z
           M 297.41,213.22
           C 293.42,216.81 288.50,209.95 292.73,204.00
             300.16,200.97 299.85,211.02 297.41,213.22 Z
           M 364.70,213.87
           C 360.76,216.00 356.48,209.42 361.43,204.04
             369.19,201.58 367.49,212.36 364.70,213.87 Z
           M 14.19,251.99
           C 7.90,256.48 7.28,267.18 13.34,272.15
             16.19,274.49 20.37,275.22 23.98,274.94
             25.44,274.83 29.47,273.98 27.83,271.58
             26.28,269.31 22.45,272.04 18.28,267.77
             14.35,263.75 15.00,257.76 20.05,255.02
             22.44,253.73 26.30,254.00 29.00,254.00
             29.00,254.00 29.00,250.00 29.00,250.00
             23.52,249.02 19.06,248.51 14.19,251.99 Z
           M 126.00,249.00
           C 126.00,249.00 126.00,275.00 126.00,275.00
             130.67,274.89 138.24,275.76 141.72,272.57
             146.37,268.31 145.45,260.46 139.90,257.23
             136.80,255.78 134.25,256.45 131.00,257.23
             131.00,257.23 131.00,249.00 131.00,249.00
             131.00,249.00 126.00,249.00 126.00,249.00 Z
           M 339.74,254.26
           C 341.60,253.66 342.84,249.99 338.38,249.72
             334.87,252.61 337.79,254.89 339.74,254.26 Z
           M 480.74,254.26
           C 482.60,253.66 483.84,249.99 479.38,249.72
             475.87,252.61 478.79,254.89 480.74,254.26 Z
           M 487.00,249.00
           C 487.00,249.00 487.00,275.00 487.00,275.00
             491.67,274.89 499.24,275.76 502.72,272.57
             507.37,268.31 506.45,260.46 500.90,257.23
             497.80,255.78 495.25,256.45 492.00,257.23
             492.00,257.23 492.00,249.00 492.00,249.00
             492.00,249.00 487.00,249.00 487.00,249.00 Z
           M 260.86,259.00
           C 259.77,255.25 258.32,249.39 253.10,250.37
             251.43,250.68 250.42,251.63 249.74,253.15
             248.69,255.46 248.99,263.10 249.00,266.00
             249.00,267.94 248.77,271.86 250.02,273.38
             253.70,277.89 254.95,270.11 255.00,268.00
             255.08,264.43 255.00,263.52 256.00,260.00
             256.56,264.00 258.37,276.58 264.78,274.34
             268.21,273.14 270.43,261.68 272.00,258.00
             272.00,258.00 272.00,275.00 272.00,275.00
             273.53,274.73 274.89,274.79 275.98,273.40
             277.53,271.44 277.02,261.87 277.00,259.00
             276.99,257.01 277.12,254.02 275.98,252.31
             275.24,251.21 274.25,250.61 272.96,250.37
             268.08,249.47 267.03,254.49 266.00,258.00
             266.00,258.00 263.00,267.00 263.00,267.00
             263.00,267.00 260.86,259.00 260.86,259.00 Z
           M 319.00,250.00
           C 319.00,250.00 319.00,268.00 319.00,268.00
             319.16,276.24 323.70,276.60 324.00,268.00
             324.00,268.00 330.27,273.83 330.27,273.83
             332.46,274.83 333.75,273.05 333.26,270.94
             332.72,268.67 330.52,266.66 329.00,265.00
             335.42,259.15 333.28,255.90 329.98,257.16
             328.37,257.79 325.48,260.73 324.00,262.00
             324.00,262.00 324.00,250.00 324.00,250.00
             324.00,250.00 319.00,250.00 319.00,250.00 Z
           M 428.28,269.59
           C 429.83,271.04 430.44,274.37 433.00,274.37
             436.31,274.37 435.72,270.05 435.24,268.00
             434.58,265.23 430.73,254.20 429.16,252.31
             425.05,247.39 420.72,251.50 419.02,256.00
             419.02,256.00 416.67,263.00 416.67,263.00
             415.87,265.40 413.42,271.18 415.06,273.38
             418.39,277.86 420.75,270.14 421.00,268.00
             423.51,268.03 426.30,267.76 428.28,269.59 Z
           M 508.00,266.00
           C 508.00,268.20 507.51,275.62 511.74,274.26
             514.49,273.37 514.00,268.27 514.00,266.00
             514.01,263.02 514.81,252.76 512.42,250.91
             511.35,250.33 510.39,250.75 510.26,250.91
             506.68,253.53 507.99,261.65 508.00,266.00 Z
           M 345.00,258.00
           C 345.00,258.00 345.00,260.00 345.00,260.00
             350.19,265.56 346.51,267.39 349.17,271.85
             350.95,274.83 354.11,274.94 354.43,271.85
             354.43,271.85 353.00,261.00 353.00,261.00
             353.00,261.00 356.00,261.00 356.00,261.00
             356.00,261.00 356.00,257.00 356.00,257.00
             356.00,257.00 352.00,252.00 352.00,252.00
             352.00,252.00 345.00,258.00 345.00,258.00 Z
           M 32.98,257.84
           C 32.20,258.70 29.35,272.39 37.04,274.57
             39.41,275.24 48.39,275.39 49.98,273.40
             51.83,271.08 51.71,258.66 48.74,257.25
             46.49,256.18 45.44,258.29 45.13,260.11
             44.67,262.84 45.67,269.52 41.05,269.52
             35.05,269.52 39.12,259.95 34.84,257.17
             34.80,257.18 33.82,256.91 32.98,257.84 Z
           M 57.23,258.88
           C 52.53,262.55 53.21,269.98 58.06,273.26
             61.02,275.27 64.59,274.99 68.00,275.00
             68.00,275.00 68.00,271.00 68.00,271.00
             58.06,269.85 56.91,261.66 68.00,261.00
             68.00,261.00 68.00,257.00 68.00,257.00
             64.02,256.47 60.63,256.21 57.23,258.88 Z
           M 71.98,257.84
           C 71.20,258.70 68.35,272.39 76.04,274.57
             78.41,275.24 87.39,275.39 88.98,273.40
             90.83,271.08 90.71,258.66 87.74,257.25
             85.49,256.18 84.44,258.29 84.13,260.11
             83.67,262.84 84.67,269.52 80.05,269.52
             74.05,269.52 78.12,259.95 73.84,257.17
             73.80,257.18 72.82,256.91 71.98,257.84 Z
           M 104.96,256.36
           C 102.91,255.93 94.55,256.44 93.60,258.33
             92.62,260.25 93.00,272.07 93.00,275.00
             93.00,275.00 98.08,275.00 98.08,275.00
             98.08,275.00 98.08,269.00 98.08,269.00
             98.08,269.00 98.08,265.02 98.08,265.02
             99.14,260.17 102.63,259.57 104.26,263.15
             105.37,265.58 104.72,269.84 105.31,271.85
             105.71,273.18 106.44,274.37 108.00,274.37
             112.12,274.37 110.55,266.82 111.31,264.06
             111.74,262.53 112.82,260.61 114.74,261.34
             117.96,262.55 116.53,269.19 117.31,271.85
             117.86,273.70 119.51,275.26 121.42,273.92
             123.43,272.51 123.09,267.18 122.82,265.00
             121.70,256.11 116.16,253.95 109.00,259.00
             107.56,257.58 107.15,256.81 104.96,256.36 Z
           M 159.00,256.91
           C 152.56,254.60 146.42,260.50 147.38,267.00
             148.68,275.74 163.47,278.81 164.00,269.00
             159.00,270.11 156.09,272.09 153.00,267.00
             153.00,267.00 166.00,266.00 166.00,266.00
             164.65,261.83 163.56,258.54 159.00,256.91 Z
           M 168.36,258.47
           C 167.79,259.95 167.83,269.07 168.36,270.94
             168.40,272.45 169.40,275.14 171.46,273.83
             174.03,272.20 171.86,267.10 174.73,263.41
             177.60,259.73 178.96,262.00 180.00,256.00
             177.71,256.23 169.55,256.63 168.36,258.47 Z
           M 291.98,274.57
           C 299.08,272.61 300.85,263.38 295.61,258.43
             292.76,255.74 289.58,255.92 286.00,256.43
             273.51,261.50 279.84,277.92 291.98,274.57 Z
           M 305.23,258.88
           C 300.53,262.55 301.21,269.98 306.06,273.26
             309.02,275.27 312.59,274.99 316.00,275.00
             316.00,275.00 316.00,271.00 316.00,271.00
             306.06,269.85 304.91,261.66 316.00,261.00
             316.00,261.00 316.00,257.00 316.00,257.00
             312.02,256.47 308.63,256.21 305.23,258.88 Z
           M 370.98,274.57
           C 378.08,272.61 379.85,263.38 374.61,258.43
             371.76,255.74 368.58,255.92 365.00,256.43
             352.51,261.50 358.84,277.92 370.98,274.57 Z
           M 445.00,271.00
           C 445.04,268.07 445.16,262.70 449.00,262.05
             450.23,261.84 451.12,262.38 451.83,263.36
             453.76,266.04 452.24,271.21 454.02,273.38
             455.46,275.14 457.87,274.62 458.69,271.85
             460.02,267.34 459.00,258.69 453.95,256.72
             451.51,255.82 449.43,256.57 447.00,256.72
             445.13,256.79 442.36,256.11 441.02,257.65
             439.38,259.55 440.00,271.90 440.00,275.00
             440.00,275.00 445.00,275.00 445.00,275.00
             445.00,275.00 445.00,271.00 445.00,271.00 Z
           M 462.62,263.79
           C 463.52,266.13 467.88,268.47 470.00,270.00
             470.00,270.00 462.00,271.00 462.00,271.00
             464.76,278.89 476.97,273.99 474.24,267.21
             473.28,264.81 469.14,262.56 467.00,261.00
             467.00,261.00 474.00,259.00 474.00,259.00
             474.00,259.00 474.00,257.00 474.00,257.00
             469.37,255.70 459.75,256.35 462.62,263.79 Z
           M 528.00,256.91
           C 521.56,254.60 515.42,260.50 516.38,267.00
             517.68,275.74 532.47,278.81 533.00,269.00
             528.00,270.11 525.09,272.09 522.00,267.00
             522.00,267.00 535.00,266.00 535.00,266.00
             533.65,261.83 532.56,258.54 528.00,256.91 Z
           M 336.23,269.98
           C 336.62,272.07 338.03,275.19 340.73,273.83
             343.45,272.46 345.18,259.28 339.12,257.91
             335.34,260.16 335.46,265.95 336.23,269.98 Z
           M 428.00,264.00
           C 428.00,264.00 422.00,264.00 422.00,264.00
             422.00,264.00 425.00,256.00 425.00,256.00
             425.00,256.00 428.00,264.00 428.00,264.00 Z
           M 477.23,269.98
           C 477.62,272.07 479.03,275.19 481.73,273.83
             484.45,272.46 486.18,259.28 480.12,257.91
             476.34,260.16 476.46,265.95 477.23,269.98 Z
           M 289.82,271.04
           C 285.36,272.22 282.55,263.42 288.21,259.96
             295.51,260.28 293.24,270.13 289.82,271.04 Z
           M 368.82,271.04
           C 364.36,272.22 361.55,263.42 367.21,259.96
             374.51,260.28 372.24,270.13 368.82,271.04 Z
           M 137.41,270.38
           C 133.43,274.17 128.52,266.90 132.74,261.00
             140.46,257.94 139.79,268.11 137.41,270.38 Z
           M 498.41,270.38
           C 494.43,274.17 489.52,266.90 493.74,261.00
             501.46,257.94 500.79,268.11 498.41,270.38 Z
           M 561.84,309.06
           C 561.02,306.64 558.85,304.84 557.02,307.37
             555.87,308.95 556.02,312.11 556.00,314.00
             541.70,310.67 540.95,325.09 545.43,329.57
             548.62,332.76 557.47,331.94 561.84,332.00
             561.84,332.00 561.84,309.06 561.84,309.06 Z
           M 19.34,326.98
           C 20.21,324.61 20.52,310.60 19.34,308.43
             18.19,305.98 12.12,303.96 10.00,310.00
             10.00,310.00 15.00,311.00 15.00,311.00
             15.00,318.59 16.38,323.73 9.00,328.00
             11.20,334.27 17.29,331.93 19.34,326.98 Z
           M 69.74,311.26
           C 71.60,310.66 72.84,306.99 68.38,306.72
             64.87,309.61 67.79,311.89 69.74,311.26 Z
           M 144.54,314.98
           C 145.16,318.72 148.18,319.96 150.94,321.78
             152.11,322.55 154.42,323.86 153.66,325.63
             152.77,327.72 147.94,326.96 144.00,328.00
             148.97,337.05 162.73,332.12 160.67,323.02
             159.69,318.65 153.46,315.81 150.00,313.00
             150.00,313.00 160.00,311.00 160.00,311.00
             156.82,301.68 143.27,307.43 144.54,314.98 Z
           M 237.74,311.26
           C 239.60,310.66 240.84,306.99 236.38,306.72
             232.87,309.61 235.79,311.89 237.74,311.26 Z
           M 351.71,317.00
           C 351.71,317.00 350.07,311.03 350.07,311.03
             347.84,304.47 342.86,305.98 343.57,311.03
             343.90,313.47 348.75,327.91 350.08,329.57
             353.44,333.76 357.87,331.37 359.52,326.98
             359.52,326.98 362.00,319.00 362.00,319.00
             362.00,319.00 363.64,326.00 363.64,326.00
             365.02,330.67 369.10,334.58 373.16,329.69
             374.66,327.88 379.40,313.58 379.62,311.02
             379.80,308.91 379.03,305.80 376.22,307.17
             373.63,308.43 372.46,314.35 371.71,317.00
             371.71,317.00 369.00,326.00 369.00,326.00
             368.39,322.78 366.33,312.57 365.15,310.06
             364.26,308.17 362.65,306.06 360.28,307.17
             357.51,308.47 355.32,321.41 354.00,325.00
             354.00,325.00 351.71,317.00 351.71,317.00 Z
           M 402.00,306.00
           C 402.00,306.00 402.00,332.00 402.00,332.00
             406.67,331.89 414.24,332.76 417.72,329.57
             422.37,325.31 421.45,317.46 415.90,314.23
             412.80,312.78 410.25,313.45 407.00,314.23
             407.00,314.23 407.00,306.00 407.00,306.00
             407.00,306.00 402.00,306.00 402.00,306.00 Z
           M 499.00,306.00
           C 499.00,306.00 499.00,323.00 499.00,323.00
             499.00,324.48 498.67,333.23 502.46,330.83
             505.08,329.17 502.73,317.61 508.87,318.62
             512.90,319.28 511.55,326.28 512.31,328.85
             512.86,330.70 514.51,332.26 516.42,330.92
             520.04,328.38 517.48,317.94 514.72,315.22
             511.16,312.18 507.92,313.54 504.00,315.22
             504.00,315.22 504.00,306.00 504.00,306.00
             504.00,306.00 499.00,306.00 499.00,306.00 Z
           M 184.00,323.00
           C 184.00,325.20 183.51,332.62 187.74,331.26
             190.49,330.37 190.00,325.27 190.00,323.00
             190.01,320.02 190.81,309.76 188.42,307.91
             187.35,307.33 186.39,307.75 186.26,307.91
             182.68,310.53 183.99,318.65 184.00,323.00 Z
           M 446.86,316.00
           C 445.77,312.25 444.32,306.39 439.10,307.37
             437.43,307.68 436.42,308.63 435.74,310.15
             434.69,312.46 434.99,320.10 435.00,323.00
             435.00,324.94 434.77,328.86 436.02,330.38
             439.70,334.89 440.95,327.11 441.00,325.00
             441.08,321.43 441.00,320.52 442.00,317.00
             442.56,321.00 444.37,333.58 450.78,331.34
             454.21,330.14 456.43,318.68 458.00,315.00
             458.00,315.00 458.00,332.00 458.00,332.00
             459.53,331.73 460.89,331.79 461.98,330.40
             463.53,328.44 463.02,318.87 463.00,316.00
             462.99,314.01 463.12,311.02 461.98,309.31
             461.24,308.21 460.25,307.61 458.96,307.37
             454.08,306.47 453.03,311.49 452.00,315.00
             452.00,315.00 449.00,324.00 449.00,324.00
             449.00,324.00 446.86,316.00 446.86,316.00 Z
           M 75.00,315.00
           C 75.00,315.00 75.00,317.00 75.00,317.00
             80.19,322.56 76.51,324.39 79.17,328.85
             80.95,331.83 84.11,331.94 84.43,328.85
             84.43,328.85 83.00,318.00 83.00,318.00
             83.00,318.00 86.00,318.00 86.00,318.00
             86.00,318.00 86.00,314.00 86.00,314.00
             86.00,314.00 82.00,309.00 82.00,309.00
             82.00,309.00 75.00,315.00 75.00,315.00 Z
           M 485.00,315.00
           C 485.00,315.00 485.00,317.00 485.00,317.00
             490.19,322.56 486.51,324.39 489.17,328.85
             490.95,331.83 494.11,331.94 494.43,328.85
             494.43,328.85 493.00,318.00 493.00,318.00
             493.00,318.00 496.00,318.00 496.00,318.00
             496.00,318.00 496.00,314.00 496.00,314.00
             496.00,314.00 492.00,309.00 492.00,309.00
             492.00,309.00 485.00,315.00 485.00,315.00 Z
           M 23.98,314.84
           C 23.20,315.70 20.35,329.39 28.04,331.57
             30.41,332.24 39.39,332.39 40.98,330.40
             42.83,328.08 42.71,315.66 39.74,314.25
             37.49,313.18 36.44,315.29 36.13,317.11
             35.67,319.84 36.67,326.52 32.05,326.52
             26.05,326.52 30.12,316.95 25.84,314.17
             25.80,314.18 24.82,313.91 23.98,314.84 Z
           M 50.00,328.00
           C 50.04,325.07 50.16,319.70 54.00,319.05
             55.23,318.84 56.12,319.38 56.83,320.36
             58.76,323.04 57.24,328.21 59.02,330.38
             60.46,332.14 62.87,331.62 63.69,328.85
             65.02,324.34 64.00,315.69 58.95,313.72
             56.51,312.82 54.43,313.57 52.00,313.72
             50.13,313.79 47.36,313.11 46.02,314.65
             44.38,316.55 45.00,328.90 45.00,332.00
             45.00,332.00 50.00,332.00 50.00,332.00
             50.00,332.00 50.00,328.00 50.00,328.00 Z
           M 176.00,313.91
           C 169.56,311.60 163.42,317.50 164.38,324.00
             165.68,332.74 180.47,335.81 181.00,326.00
             176.00,327.11 173.09,329.09 170.00,324.00
             170.00,324.00 183.00,323.00 183.00,323.00
             181.65,318.83 180.56,315.54 176.00,313.91 Z
           M 204.00,313.91
           C 197.56,311.60 191.42,317.50 192.38,324.00
             193.68,332.74 208.47,335.81 209.00,326.00
             204.00,327.11 201.09,329.09 198.00,324.00
             198.00,324.00 211.00,323.00 211.00,323.00
             209.65,318.83 208.56,315.54 204.00,313.91 Z
           M 218.00,328.00
           C 218.04,325.07 218.16,319.70 222.00,319.05
             223.23,318.84 224.12,319.38 224.83,320.36
             226.76,323.04 225.24,328.21 227.02,330.38
             228.46,332.14 230.87,331.62 231.69,328.85
             233.02,324.34 232.00,315.69 226.95,313.72
             224.51,312.82 222.43,313.57 220.00,313.72
             218.13,313.79 215.36,313.11 214.02,314.65
             212.38,316.55 213.00,328.90 213.00,332.00
             213.00,332.00 218.00,332.00 218.00,332.00
             218.00,332.00 218.00,328.00 218.00,328.00 Z
           M 244.98,314.84
           C 244.20,315.70 241.35,329.39 249.04,331.57
             251.41,332.24 260.39,332.39 261.98,330.40
             263.83,328.08 263.71,315.66 260.74,314.25
             258.49,313.18 257.44,315.29 257.13,317.11
             256.67,319.84 257.67,326.52 253.05,326.52
             247.05,326.52 251.12,316.95 246.84,314.17
             246.80,314.18 245.82,313.91 244.98,314.84 Z
           M 277.96,313.36
           C 275.91,312.93 267.55,313.44 266.60,315.33
             265.62,317.25 266.00,329.07 266.00,332.00
             266.00,332.00 271.08,332.00 271.08,332.00
             271.08,332.00 271.08,326.00 271.08,326.00
             271.08,326.00 271.08,322.02 271.08,322.02
             272.14,317.17 275.63,316.57 277.26,320.15
             278.37,322.58 277.72,326.84 278.31,328.85
             278.71,330.18 279.44,331.37 281.00,331.37
             285.12,331.37 283.55,323.82 284.31,321.06
             284.74,319.53 285.82,317.61 287.74,318.34
             290.96,319.55 289.53,326.19 290.31,328.85
             290.86,330.70 292.51,332.26 294.42,330.92
             296.43,329.51 296.09,324.18 295.82,322.00
             294.70,313.11 289.16,310.95 282.00,316.00
             280.56,314.58 280.15,313.81 277.96,313.36 Z
           M 393.00,313.91
           C 386.56,311.60 380.42,317.50 381.38,324.00
             382.68,332.74 397.47,335.81 398.00,326.00
             393.00,327.11 390.09,329.09 387.00,324.00
             387.00,324.00 400.00,323.00 400.00,323.00
             398.65,318.83 397.56,315.54 393.00,313.91 Z
           M 477.00,313.91
           C 470.56,311.60 464.42,317.50 465.38,324.00
             466.68,332.74 481.47,335.81 482.00,326.00
             477.00,327.11 474.09,329.09 471.00,324.00
             471.00,324.00 484.00,323.00 484.00,323.00
             482.65,318.83 481.56,315.54 477.00,313.91 Z
           M 532.98,331.57
           C 540.08,329.61 541.85,320.38 536.61,315.43
             533.76,312.74 530.58,312.92 527.00,313.43
             514.51,318.50 520.84,334.92 532.98,331.57 Z
           M 565.62,320.79
           C 566.52,323.13 570.88,325.47 573.00,327.00
             573.00,327.00 565.00,328.00 565.00,328.00
             567.76,335.89 579.97,330.99 577.24,324.21
             576.28,321.81 572.14,319.56 570.00,318.00
             570.00,318.00 577.00,316.00 577.00,316.00
             577.00,316.00 577.00,314.00 577.00,314.00
             572.37,312.70 562.75,313.35 565.62,320.79 Z
           M 66.23,326.98
           C 66.62,329.07 68.03,332.19 70.73,330.83
             73.45,329.46 75.18,316.28 69.12,314.91
             65.34,317.16 65.46,322.95 66.23,326.98 Z
           M 234.23,326.98
           C 234.62,329.07 236.03,332.19 238.73,330.83
             241.45,329.46 243.18,316.28 237.12,314.91
             233.34,317.16 233.46,322.95 234.23,326.98 Z
           M 530.82,328.04
           C 526.36,329.22 523.55,320.42 529.21,316.96
             536.51,317.28 534.24,327.13 530.82,328.04 Z
           M 178.00,321.00
           C 178.00,321.00 170.00,321.00 170.00,321.00
             171.90,315.75 175.56,316.68 178.00,321.00 Z
           M 206.00,321.00
           C 206.00,321.00 198.00,321.00 198.00,321.00
             199.90,315.75 203.56,316.68 206.00,321.00 Z
           M 395.00,321.00
           C 395.00,321.00 387.00,321.00 387.00,321.00
             388.90,315.75 392.56,316.68 395.00,321.00 Z
           M 413.41,327.38
           C 409.43,331.17 404.52,323.90 408.74,318.00
             416.46,314.94 415.79,325.11 413.41,327.38 Z
           M 479.00,321.00
           C 479.00,321.00 471.00,321.00 471.00,321.00
             472.90,315.75 476.56,316.68 479.00,321.00 Z
           M 553.69,327.83
           C 550.15,329.50 545.36,323.30 550.31,318.04
             558.41,315.57 556.33,326.58 553.69,327.83 Z
           M 196.00,370.00
           C 193.96,376.08 189.79,384.75 191.00,391.00
             191.00,391.00 193.00,391.00 193.00,391.00
             195.75,384.74 201.42,368.47 202.00,362.00
             197.41,363.56 197.47,365.62 196.00,370.00 Z
           M 22.33,373.00
           C 22.33,373.00 18.24,367.11 18.24,367.11
             17.53,366.26 16.76,365.38 15.82,364.78
             6.98,359.14 8.97,377.05 9.00,381.00
             9.01,383.00 9.17,390.91 13.42,387.92
             15.97,386.13 14.23,379.22 16.00,373.00
             16.00,373.00 20.40,381.00 20.40,381.00
             20.40,381.00 23.61,385.85 23.61,385.85
             26.13,388.71 30.50,390.21 32.40,385.85
             33.29,383.81 33.01,375.67 33.00,373.00
             33.00,370.80 33.49,363.38 29.26,364.74
             25.74,365.87 27.86,373.44 26.00,380.00
             24.89,377.11 24.02,375.59 22.33,373.00 Z
           M 58.54,371.98
           C 59.16,375.72 62.18,376.96 64.94,378.78
             66.11,379.55 68.42,380.86 67.66,382.63
             66.77,384.72 61.94,383.96 58.00,385.00
             62.97,394.05 76.73,389.12 74.67,380.02
             73.69,375.65 67.46,372.81 64.00,370.00
             64.00,370.00 74.00,368.00 74.00,368.00
             70.82,358.68 57.27,364.43 58.54,371.98 Z
           M 101.93,393.38
           C 102.94,392.04 102.32,389.77 102.68,388.00
             103.58,383.68 106.57,383.14 105.91,375.00
             105.69,372.39 105.14,370.21 103.49,368.11
             102.03,366.24 100.19,365.01 98.00,364.15
             80.69,357.34 71.40,382.40 87.00,388.44
             90.07,389.62 92.78,389.85 96.00,390.00
             96.70,392.19 99.34,396.83 101.93,393.38 Z
           M 115.00,370.00
           C 114.97,368.33 115.13,365.30 113.45,364.32
             111.34,363.09 109.80,365.28 109.16,367.06
             109.16,367.06 109.16,381.00 109.16,381.00
             109.04,387.43 109.16,388.87 116.00,388.92
             116.00,388.92 121.94,388.92 121.94,388.92
             123.45,388.60 126.14,387.60 124.83,385.54
             123.52,383.48 117.26,384.00 115.00,384.00
             115.00,384.00 115.00,370.00 115.00,370.00 Z
           M 156.19,365.99
           C 149.90,370.48 149.28,381.18 155.34,386.15
             158.19,388.49 162.37,389.22 165.98,388.94
             167.44,388.83 171.47,387.98 169.83,385.58
             168.28,383.31 164.45,386.04 160.28,381.77
             156.35,377.75 157.00,371.76 162.05,369.02
             164.44,367.73 168.30,368.00 171.00,368.00
             171.00,368.00 171.00,364.00 171.00,364.00
             165.52,363.02 161.06,362.51 156.19,365.99 Z
           M 174.00,380.00
           C 174.00,382.20 173.51,389.62 177.74,388.26
             180.49,387.37 180.00,382.27 180.00,380.00
             180.01,377.15 180.58,366.46 178.98,364.66
             178.06,363.61 177.20,363.96 177.00,363.91
             172.25,366.68 173.99,375.15 174.00,380.00 Z
           M 210.19,365.99
           C 203.90,370.48 203.28,381.18 209.34,386.15
             212.19,388.49 216.37,389.22 219.98,388.94
             221.44,388.83 225.47,387.98 223.83,385.58
             222.28,383.31 218.45,386.04 214.28,381.77
             210.35,377.75 211.00,371.76 216.05,369.02
             218.44,367.73 222.30,368.00 225.00,368.00
             225.00,368.00 225.00,364.00 225.00,364.00
             219.52,363.02 215.06,362.51 210.19,365.99 Z
           M 228.00,380.00
           C 228.00,381.99 227.77,385.81 229.02,387.40
             230.71,389.53 236.52,389.11 239.00,388.83
             253.80,387.17 254.48,372.52 246.89,366.65
             244.72,364.97 241.68,363.97 239.00,363.47
             234.65,362.65 232.21,363.24 228.00,364.00
             228.00,364.00 228.00,380.00 228.00,380.00 Z
           M 266.54,371.98
           C 267.16,375.72 270.18,376.96 272.94,378.78
             274.11,379.55 276.42,380.86 275.66,382.63
             274.77,384.72 269.94,383.96 266.00,385.00
             270.97,394.05 284.73,389.12 282.67,380.02
             281.69,375.65 275.46,372.81 272.00,370.00
             272.00,370.00 282.00,368.00 282.00,368.00
             278.82,358.68 265.27,364.43 266.54,371.98 Z
           M 363.74,368.26
           C 365.60,367.66 366.84,363.99 362.38,363.72
             358.87,366.61 361.79,368.89 363.74,368.26 Z
           M 369.00,372.00
           C 369.00,372.00 369.00,374.00 369.00,374.00
             374.19,379.56 370.51,381.39 373.17,385.85
             374.95,388.83 378.11,388.94 378.43,385.85
             378.43,385.85 377.00,375.00 377.00,375.00
             377.00,375.00 380.00,375.00 380.00,375.00
             380.00,375.00 380.00,371.00 380.00,371.00
             380.00,371.00 376.00,366.00 376.00,366.00
             376.00,366.00 369.00,372.00 369.00,372.00 Z
           M 234.00,373.00
           C 234.13,366.46 237.67,363.93 242.57,369.28
             246.46,373.51 245.35,382.67 239.89,385.15
             238.03,385.99 235.99,385.94 234.00,386.00
             234.00,386.00 234.00,373.00 234.00,373.00 Z
           M 47.98,388.57
           C 55.08,386.61 56.85,377.38 51.61,372.43
             48.76,369.74 45.58,369.92 42.00,370.43
             29.51,375.50 35.84,391.92 47.98,388.57 Z
           M 298.00,370.91
           C 291.56,368.60 285.42,374.50 286.38,381.00
             287.68,389.74 302.47,392.81 303.00,383.00
             298.00,384.11 295.09,386.09 292.00,381.00
             292.00,381.00 305.00,380.00 305.00,380.00
             303.65,375.83 302.56,372.54 298.00,370.91 Z
           M 310.23,372.88
           C 305.53,376.55 306.21,383.98 311.06,387.26
             314.02,389.27 317.59,388.99 321.00,389.00
             321.00,389.00 321.00,385.00 321.00,385.00
             311.06,383.85 309.91,375.66 321.00,375.00
             321.00,375.00 321.00,371.00 321.00,371.00
             317.02,370.47 313.63,370.21 310.23,372.88 Z
           M 324.98,371.84
           C 324.20,372.70 321.35,386.39 329.04,388.57
             331.41,389.24 340.39,389.39 341.98,387.40
             343.83,385.08 343.71,372.66 340.74,371.25
             338.49,370.18 337.44,372.29 337.13,374.11
             336.67,376.84 337.67,383.52 333.05,383.52
             327.05,383.52 331.12,373.95 326.84,371.17
             326.80,371.18 325.82,370.91 324.98,371.84 Z
           M 346.36,372.47
           C 345.79,373.95 345.83,383.07 346.36,384.94
             346.40,386.45 347.40,389.14 349.46,387.83
             352.03,386.20 349.86,381.10 352.73,377.41
             355.60,373.73 356.96,376.00 358.00,370.00
             355.71,370.23 347.55,370.63 346.36,372.47 Z
           M 384.59,371.17
           C 381.41,373.13 386.32,380.80 386.99,386.00
             387.60,390.62 384.71,391.91 382.00,395.00
             391.70,400.02 394.15,391.51 396.67,384.00
             396.67,384.00 399.43,375.02 399.43,375.02
             399.67,373.21 399.14,369.66 396.45,371.17
             394.39,372.32 393.52,378.61 391.00,383.00
             390.80,380.73 389.07,368.41 384.59,371.17 Z
           M 360.23,383.98
           C 360.62,386.07 362.03,389.19 364.73,387.83
             367.45,386.46 369.18,373.28 363.12,371.91
             359.34,374.16 359.46,379.95 360.23,383.98 Z
           M 45.82,385.04
           C 41.36,386.22 38.55,377.42 44.21,373.96
             51.51,374.28 49.24,384.13 45.82,385.04 Z
           M 300.00,378.00
           C 300.00,378.00 292.00,378.00 292.00,378.00
             293.90,372.75 297.56,373.68 300.00,378.00 Z" />
</svg>
