<?xml version="1.0" encoding="UTF-8" standalone="no"?>
<!DOCTYPE svg PUBLIC "-//W3C//DTD SVG 20010904//EN"
              "http://www.w3.org/TR/2001/REC-SVG-20010904/DTD/svg10.dtd">

<svg xmlns="http://www.w3.org/2000/svg"
     width="8.33333in" height="4.45833in"
     viewBox="0 0 600 230">
  <path id="Selection"
        fill="none" fill-opacity="0.1" stroke="#ece7e7" stroke-opacity="0.2" 
        d="M 31.84,2.62
           C 33.32,3.26 34.63,4.83 33.26,6.33
             31.89,7.83 29.06,7.01 27.00,7.68
             23.16,8.93 20.50,12.97 21.45,17.00
             22.27,20.51 24.58,22.26 28.00,22.86
             29.70,23.16 32.78,22.84 33.83,24.54
             34.84,26.16 33.19,27.52 31.85,27.88
             29.20,29.27 24.67,28.57 22.00,27.88
             11.88,24.19 9.74,8.23 23.00,2.62
             25.56,2.12 29.35,1.48 31.84,2.62 Z
           M 125.00,18.00
           C 125.00,20.41 125.37,25.39 123.27,26.99
             119.00,30.24 118.05,23.51 118.00,21.00
             117.92,16.35 116.97,6.64 119.58,3.08
             126.75,1.25 125.01,13.68 125.00,18.00 Z
           M 144.22,7.21
           C 142.29,9.07 137.94,7.39 140.60,3.04
             145.60,1.22 145.93,5.57 144.22,7.21 Z
           M 316.00,11.00
           C 316.00,9.01 315.77,5.19 317.02,3.60
             318.55,1.67 322.76,1.93 325.00,2.04
             333.56,2.44 340.84,7.64 339.80,17.00
             339.32,21.25 336.84,24.79 333.00,26.69
             330.20,28.07 327.03,27.98 324.00,28.00
             324.00,28.00 316.00,28.00 316.00,28.00
             316.00,28.00 316.00,11.00 316.00,11.00 Z
           M 531.22,7.21
           C 529.29,9.07 524.94,7.39 527.60,3.04
             532.60,1.22 532.93,5.57 531.22,7.21 Z
           M 135.70,26.42
           C 134.63,28.20 131.78,27.96 130.14,25.69
             129.44,24.72 126.46,13.22 126.47,12.00
             126.53,8.07 132.39,0.81 134.00,10.00
             134.00,10.00 138.00,11.00 138.00,11.00
             138.00,11.00 138.00,13.00 138.00,13.00
             138.00,13.00 134.00,14.00 134.00,14.00
             134.08,17.15 136.46,25.15 135.70,26.42 Z
           M 322.00,18.00
           C 322.17,26.80 327.51,25.25 330.26,21.72
             333.36,17.75 332.54,9.54 327.94,7.02
             326.07,6.00 324.05,6.07 322.00,6.00
             322.00,6.00 322.00,18.00 322.00,18.00 Z
           M 487.70,26.42
           C 486.63,28.20 483.78,27.96 482.14,25.69
             481.44,24.72 478.46,13.22 478.47,12.00
             478.53,8.07 484.39,0.81 486.00,10.00
             486.00,10.00 490.00,11.00 490.00,11.00
             490.00,11.00 490.00,13.00 490.00,13.00
             490.00,13.00 486.00,14.00 486.00,14.00
             486.08,17.15 488.46,25.15 487.70,26.42 Z
           M 522.70,26.42
           C 521.63,28.20 518.78,27.96 517.14,25.69
             516.44,24.72 513.46,13.22 513.47,12.00
             513.53,8.07 519.39,0.81 521.00,10.00
             521.00,10.00 525.00,11.00 525.00,11.00
             525.00,11.00 525.00,13.00 525.00,13.00
             525.00,13.00 521.00,14.00 521.00,14.00
             521.08,17.15 523.46,25.15 522.70,26.42 Z
           M 48.00,28.55
           C 40.76,30.33 35.33,23.98 36.14,17.00
             36.72,11.95 39.55,10.11 44.00,8.59
             58.35,7.29 59.57,25.72 48.00,28.55 Z
           M 80.84,15.96
           C 78.70,8.56 88.57,8.52 93.00,9.00
             93.00,9.00 92.00,14.00 92.00,14.00
             92.00,14.00 87.00,13.00 87.00,13.00
             89.11,15.44 93.18,18.21 93.92,21.04
             95.60,27.47 86.53,30.13 82.33,27.57
             80.20,26.26 79.79,23.32 85.02,23.82
             85.02,23.82 88.00,23.82 88.00,23.82
             85.92,21.60 81.61,18.59 80.84,15.96 Z
           M 277.84,15.96
           C 275.70,8.56 285.57,8.52 290.00,9.00
             290.00,9.00 289.00,14.00 289.00,14.00
             289.00,14.00 284.00,13.00 284.00,13.00
             286.11,15.44 290.18,18.21 290.92,21.04
             292.60,27.47 283.53,30.13 279.33,27.57
             277.20,26.26 276.79,23.32 282.02,23.82
             282.02,23.82 285.00,23.82 285.00,23.82
             282.92,21.60 278.61,18.59 277.84,15.96 Z
           M 354.00,28.55
           C 346.76,30.33 341.33,23.98 342.14,17.00
             342.72,11.95 345.55,10.11 350.00,8.59
             364.35,7.29 365.57,25.72 354.00,28.55 Z
           M 415.01,21.00
           C 414.93,19.30 415.08,15.12 412.83,14.62
             411.34,14.29 410.63,15.96 410.31,17.08
             409.69,19.31 410.38,23.65 409.40,25.76
             408.02,28.73 403.62,29.30 403.03,22.98
             403.03,22.98 403.03,18.00 403.03,18.00
             403.00,16.29 402.87,12.79 403.60,11.31
             404.83,8.81 412.41,8.34 414.99,8.58
             414.99,8.58 420.42,9.79 420.42,9.79
             423.35,9.77 427.23,6.37 431.57,11.23
             434.01,13.96 435.62,24.43 432.40,26.98
             431.17,27.96 429.47,27.88 428.00,28.00
             428.00,25.40 428.98,15.04 425.00,15.04
             421.02,15.04 422.00,25.40 422.00,28.00
             415.92,28.40 415.30,26.84 415.01,21.00 Z
           M 547.00,28.55
           C 539.76,30.33 534.33,23.98 535.14,17.00
             535.72,11.95 538.55,10.11 543.00,8.59
             557.35,7.29 558.57,25.72 547.00,28.55 Z
           M 64.40,25.85
           C 63.67,27.51 62.14,28.73 60.30,27.83
             57.30,26.37 57.12,12.96 59.02,10.39
             60.72,8.49 72.48,8.78 74.77,10.39
             78.62,12.52 78.52,20.97 77.85,24.94
             77.51,27.01 75.98,29.61 73.58,27.92
             71.48,26.45 72.30,22.37 71.62,19.00
             71.62,19.00 70.00,14.00 70.00,14.00
             62.27,18.51 66.56,20.98 64.40,25.85 Z
           M 105.30,21.66
           C 111.90,24.00 107.90,9.63 113.00,9.63
             114.98,9.63 115.58,11.45 115.85,13.06
             116.26,15.43 116.37,25.68 114.98,27.38
             113.39,29.33 110.86,27.99 107.83,28.02
             105.22,28.43 103.68,29.16 101.05,28.02
             95.51,24.97 94.38,14.71 97.72,10.01
             106.00,6.97 100.58,20.00 105.30,21.66 Z
           M 154.40,25.85
           C 153.67,27.51 152.14,28.73 150.30,27.83
             147.30,26.37 147.12,12.96 149.02,10.39
             150.72,8.49 162.48,8.78 164.77,10.39
             168.62,12.52 168.52,20.97 167.85,24.94
             167.51,27.01 165.98,29.61 163.58,27.92
             161.48,26.45 162.30,22.37 161.62,19.00
             161.62,19.00 160.00,14.00 160.00,14.00
             152.27,18.51 156.56,20.98 154.40,25.85 Z
           M 176.02,27.40
           C 169.50,24.91 168.53,16.02 173.39,11.43
             175.95,9.02 178.47,9.09 181.72,9.15
             184.29,9.19 188.06,8.57 189.40,11.31
             190.30,13.15 190.03,22.44 190.00,25.00
             189.95,28.11 190.02,31.04 187.57,33.35
             185.10,35.68 180.32,36.38 177.06,35.85
             175.54,35.61 172.87,34.60 174.17,32.54
             175.72,30.07 178.29,32.65 183.00,28.00
             180.97,27.99 177.89,28.12 176.02,27.40 Z
           M 245.00,22.00
           C 244.96,23.80 245.10,26.75 243.40,27.88
             242.18,28.69 230.51,29.36 227.01,24.66
             221.98,17.90 227.40,4.92 239.00,11.00
             246.14,6.47 245.07,18.10 245.00,22.00 Z
           M 249.05,20.00
           C 248.39,18.19 247.26,14.95 247.33,13.06
             247.46,9.39 250.99,7.42 253.99,15.00
             253.99,15.00 256.00,20.00 256.00,20.00
             256.22,17.34 257.99,5.49 263.15,10.62
             264.31,11.77 266.12,17.92 267.00,20.00
             267.26,17.18 267.69,13.66 269.41,11.30
             271.37,8.62 274.07,9.29 274.58,12.15
             275.16,15.35 268.43,38.22 261.00,23.00
             255.55,31.85 251.83,27.56 249.05,20.00 Z
           M 374.00,28.57
           C 372.41,28.45 370.41,27.74 369.05,26.91
             355.74,18.76 373.46,1.41 380.00,13.00
             380.00,13.00 376.02,14.32 376.02,14.32
             365.33,18.54 377.75,23.88 378.46,24.57
             379.70,25.78 379.54,26.18 380.00,27.00
             377.79,28.00 376.56,28.76 374.00,28.57 Z
           M 390.30,21.66
           C 396.90,24.00 392.90,9.63 398.00,9.63
             399.98,9.63 400.58,11.45 400.85,13.06
             401.26,15.43 401.37,25.68 399.98,27.38
             398.39,29.33 395.86,27.99 392.83,28.02
             390.22,28.43 388.68,29.16 386.05,28.02
             380.51,24.97 379.38,14.71 382.72,10.01
             391.00,6.97 385.58,20.00 390.30,21.66 Z
           M 452.83,25.63
           C 451.63,27.85 447.25,28.40 445.00,28.23
             438.53,27.75 434.74,22.25 436.43,16.00
             438.21,9.40 446.64,6.77 451.72,11.43
             453.67,13.22 456.00,17.82 453.39,19.98
             451.82,21.27 446.25,20.79 442.00,22.00
             447.34,23.52 455.15,21.33 452.83,25.63 Z
           M 462.40,25.85
           C 461.67,27.51 460.14,28.73 458.30,27.83
             455.30,26.37 455.12,12.96 457.02,10.39
             458.72,8.49 470.48,8.78 472.77,10.39
             476.62,12.52 476.52,20.97 475.85,24.94
             475.51,27.01 473.98,29.61 471.58,27.92
             469.48,26.45 470.30,22.37 469.62,19.00
             469.62,19.00 468.00,14.00 468.00,14.00
             460.27,18.51 464.56,20.98 462.40,25.85 Z
           M 511.00,22.00
           C 510.96,23.80 511.10,26.75 509.40,27.88
             508.18,28.69 496.51,29.36 493.01,24.66
             487.98,17.90 493.40,4.92 505.00,11.00
             512.14,6.47 511.07,18.10 511.00,22.00 Z
           M 563.40,25.85
           C 562.67,27.51 561.14,28.73 559.30,27.83
             556.30,26.37 556.12,12.96 558.02,10.39
             559.72,8.49 571.48,8.78 573.77,10.39
             577.62,12.52 577.52,20.97 576.85,24.94
             576.51,27.01 574.98,29.61 572.58,27.92
             570.48,26.45 571.30,22.37 570.62,19.00
             570.62,19.00 569.00,14.00 569.00,14.00
             561.27,18.51 565.56,20.98 563.40,25.85 Z
           M 143.70,27.60
           C 140.97,28.83 139.52,26.22 139.15,23.96
             138.54,20.27 138.42,14.05 140.59,11.04
             149.03,8.15 146.49,26.34 143.70,27.60 Z
           M 530.70,27.60
           C 527.97,28.83 526.52,26.22 526.15,23.96
             525.54,20.27 525.42,14.05 527.59,11.04
             536.03,8.15 533.49,26.34 530.70,27.60 Z
           M 46.77,23.26
           C 49.86,22.35 51.94,14.04 45.10,13.74
             39.42,17.35 43.18,24.30 46.77,23.26 Z
           M 180.83,23.56
           C 184.15,23.15 186.07,15.45 180.08,13.74
             174.82,15.71 176.80,24.06 180.83,23.56 Z
           M 237.89,20.00
           C 237.98,18.95 237.98,17.13 237.89,16.15
             235.50,8.75 227.29,18.74 233.43,22.98
             234.81,23.93 236.43,23.87 237.89,24.00
             237.89,24.00 237.89,20.00 237.89,20.00 Z
           M 352.77,23.26
           C 355.86,22.35 357.94,14.04 351.10,13.74
             345.42,17.35 349.18,24.30 352.77,23.26 Z
           M 442.00,16.00
           C 442.00,16.00 449.00,16.00 449.00,16.00
             446.50,12.48 444.81,13.31 442.00,16.00 Z
           M 503.89,20.00
           C 503.98,18.95 503.98,17.13 503.89,16.15
             501.50,8.75 493.29,18.74 499.43,22.98
             500.81,23.93 502.43,23.87 503.89,24.00
             503.89,24.00 503.89,20.00 503.89,20.00 Z
           M 545.77,23.26
           C 548.86,22.35 550.94,14.04 544.10,13.74
             538.42,17.35 542.18,24.30 545.77,23.26 Z
           M 442.93,61.06
           C 442.93,61.06 440.67,69.00 440.67,69.00
             440.67,69.00 434.30,86.01 434.30,86.01
             434.30,86.01 431.00,87.00 431.00,87.00
             431.32,80.52 436.97,62.91 440.00,57.00
             440.00,57.00 442.93,61.06 442.93,61.06 Z
           M 312.02,59.62
           C 315.69,55.12 316.96,62.87 317.00,65.00
             317.00,65.00 317.00,79.00 317.00,79.00
             316.97,80.58 317.03,83.10 315.98,84.39
             314.47,86.22 311.11,85.46 309.00,85.36
             306.89,85.27 305.03,85.41 303.02,84.53
             297.02,81.90 295.50,74.17 299.65,69.23
             301.11,67.49 302.77,66.58 305.00,66.24
             307.31,65.89 308.85,66.39 311.00,67.00
             311.01,65.06 310.77,61.15 312.02,59.62 Z
           M 9.17,70.79
           C 4.91,63.53 12.17,58.42 18.98,59.11
             21.37,59.35 25.66,61.40 22.39,63.99
             20.82,65.23 16.96,64.99 15.00,65.00
             18.39,71.20 27.22,71.09 25.53,79.00
             24.37,84.42 18.99,86.38 14.00,85.89
             11.96,85.69 7.50,84.36 9.17,81.36
             10.18,79.55 16.64,79.56 19.00,79.00
             19.00,79.00 19.00,77.00 19.00,77.00
             15.89,75.66 10.94,73.80 9.17,70.79 Z
           M 56.82,73.00
           C 56.81,76.95 55.44,78.65 53.99,82.00
             52.14,86.24 53.26,89.59 50.70,90.75
             47.70,92.11 46.05,88.00 42.87,86.56
             40.43,85.45 36.08,85.69 32.23,81.78
             26.46,75.93 27.59,64.04 38.00,59.65
             47.74,57.64 56.82,61.92 56.82,73.00 Z
           M 60.02,83.40
           C 58.40,81.35 58.95,69.17 59.00,66.00
             59.03,64.43 58.97,61.89 60.02,60.62
             60.73,59.75 61.75,59.43 62.83,59.74
             66.53,60.82 66.06,67.08 65.72,70.00
             65.17,74.65 65.01,75.15 65.00,80.00
             72.15,79.68 75.40,77.49 76.00,85.00
             72.71,85.00 61.98,85.88 60.02,83.40 Z
           M 117.85,82.77
           C 117.14,84.64 115.41,85.93 113.56,84.72
             111.19,83.17 112.00,72.89 112.00,70.00
             112.00,67.56 111.77,63.47 113.17,61.43
             113.90,60.38 114.85,59.77 116.10,59.54
             120.88,58.65 122.49,63.45 123.66,67.00
             124.99,71.06 125.03,71.95 127.00,76.00
             127.33,72.29 128.95,63.99 131.51,61.32
             134.46,58.24 138.64,59.33 140.26,63.11
             140.99,64.80 140.97,67.18 141.00,69.00
             141.03,71.65 141.30,80.82 140.40,82.77
             139.32,85.13 136.67,85.94 135.02,83.64
             135.02,83.64 133.00,73.00 133.00,73.00
             132.46,76.82 131.54,84.01 126.96,85.04
             125.28,85.41 123.86,84.78 122.72,83.55
             121.10,81.80 119.06,73.85 117.85,71.00
             117.85,71.00 117.85,82.77 117.85,82.77 Z
           M 147.22,64.21
           C 145.29,66.07 140.94,64.39 143.60,60.04
             148.60,58.22 148.93,62.57 147.22,64.21 Z
           M 178.22,64.21
           C 176.29,66.07 171.94,64.39 174.60,60.04
             179.60,58.22 179.93,62.57 178.22,64.21 Z
           M 256.00,78.00
           C 255.82,87.44 249.18,87.44 249.16,78.00
             249.16,78.00 249.16,62.15 249.16,62.15
             250.73,57.36 255.55,59.30 257.96,62.15
             257.96,62.15 260.67,66.00 260.67,66.00
             260.67,66.00 267.00,75.00 267.00,75.00
             267.00,75.00 266.29,68.00 266.29,68.00
             266.07,65.88 265.92,63.17 267.17,61.32
             269.10,58.46 272.44,59.27 273.46,63.06
             274.34,65.64 274.21,78.40 273.46,80.95
             271.64,86.02 267.28,86.59 263.76,82.77
             263.76,82.77 261.05,79.00 261.05,79.00
             261.05,79.00 256.00,71.00 256.00,71.00
             256.00,71.00 256.00,78.00 256.00,78.00 Z
           M 346.98,59.15
           C 353.35,60.08 352.05,67.20 352.00,72.00
             351.89,80.95 350.03,86.30 340.00,85.00
             340.00,85.00 344.41,76.87 344.41,76.87
             344.41,76.87 345.00,64.00 345.00,64.00
             337.95,62.78 341.35,58.33 346.98,59.15 Z
           M 409.84,59.62
           C 411.32,60.26 412.63,61.83 411.26,63.33
             409.89,64.83 407.06,64.01 405.00,64.68
             401.16,65.93 398.50,69.97 399.45,74.00
             400.27,77.51 402.58,79.26 406.00,79.86
             407.70,80.16 410.78,79.84 411.83,81.54
             412.84,83.16 411.19,84.52 409.85,84.88
             407.20,86.27 402.67,85.57 400.00,84.88
             389.88,81.19 387.74,65.23 401.00,59.62
             403.56,59.12 407.35,58.48 409.84,59.62 Z
           M 422.00,75.00
           C 422.00,77.56 422.33,82.37 420.27,84.21
             417.53,86.64 415.56,83.55 415.15,80.98
             414.47,76.80 414.29,63.19 416.59,60.08
             423.93,58.25 422.01,70.53 422.00,75.00 Z
           M 463.84,59.62
           C 465.32,60.26 466.63,61.83 465.26,63.33
             463.89,64.83 461.06,64.01 459.00,64.68
             455.16,65.93 452.50,69.97 453.45,74.00
             454.27,77.51 456.58,79.26 460.00,79.86
             461.70,80.16 464.78,79.84 465.83,81.54
             466.84,83.16 465.19,84.52 463.85,84.88
             461.20,86.27 456.67,85.57 454.00,84.88
             443.88,81.19 441.74,65.23 455.00,59.62
             457.56,59.12 461.35,58.48 463.84,59.62 Z
           M 469.00,68.00
           C 469.00,66.01 468.77,62.19 470.02,60.60
             471.55,58.67 475.76,58.93 478.00,59.04
             486.56,59.44 493.84,64.64 492.80,74.00
             492.32,78.25 489.84,81.79 486.00,83.69
             483.20,85.07 480.03,84.98 477.00,85.00
             477.00,85.00 469.00,85.00 469.00,85.00
             469.00,85.00 469.00,68.00 469.00,68.00 Z
           M 526.25,74.18
           C 531.56,82.18 521.54,84.59 516.00,85.16
             513.60,85.41 509.78,86.43 507.99,84.26
             506.40,82.33 506.95,69.15 507.00,66.00
             507.06,63.11 506.83,60.29 510.15,59.31
             517.46,57.16 534.50,63.15 523.00,71.00
             524.20,72.03 525.34,72.82 526.25,74.18 Z
           M 531.58,84.29
           C 529.96,82.88 530.04,79.96 530.00,78.00
             530.00,78.00 530.00,66.00 530.00,66.00
             530.03,64.41 529.93,62.05 530.99,60.74
             532.54,58.82 536.74,58.92 539.00,59.04
             547.38,59.52 551.27,66.91 547.15,72.86
             546.25,74.15 545.34,74.87 543.95,75.57
             541.81,76.64 539.34,76.80 537.00,77.00
             536.89,79.20 535.97,88.12 531.58,84.29 Z
           M 555.85,82.77
           C 555.14,84.64 553.41,85.93 551.56,84.72
             549.19,83.17 550.00,72.89 550.00,70.00
             550.00,67.56 549.77,63.47 551.17,61.43
             551.90,60.38 552.85,59.77 554.10,59.54
             558.88,58.65 560.49,63.45 561.66,67.00
             562.99,71.06 563.03,71.95 565.00,76.00
             565.33,72.29 566.95,63.99 569.51,61.32
             572.46,58.24 576.64,59.33 578.26,63.11
             578.99,64.80 578.97,67.18 579.00,69.00
             579.03,71.65 579.30,80.82 578.40,82.77
             577.32,85.13 574.67,85.94 573.02,83.64
             573.02,83.64 571.00,73.00 571.00,73.00
             570.46,76.82 569.54,84.01 564.96,85.04
             563.28,85.41 561.86,84.78 560.72,83.55
             559.10,81.80 557.06,73.85 555.85,71.00
             555.85,71.00 555.85,82.77 555.85,82.77 Z
           M 537.00,62.00
           C 537.00,62.00 537.00,73.00 537.00,73.00
             544.26,71.73 544.40,63.70 537.00,62.00 Z
           M 43.98,81.29
           C 51.00,79.40 52.33,62.39 41.04,63.64
             31.75,68.89 36.52,83.31 43.98,81.29 Z
           M 475.00,75.00
           C 475.17,83.80 480.51,82.25 483.26,78.72
             486.36,74.75 485.54,66.54 480.94,64.02
             479.07,63.00 477.05,63.07 475.00,63.00
             475.00,63.00 475.00,75.00 475.00,75.00 Z
           M 514.00,64.00
           C 514.00,64.00 514.00,70.00 514.00,70.00
             519.82,68.98 519.82,65.02 514.00,64.00 Z
           M 287.00,85.55
           C 279.76,87.33 274.33,80.98 275.14,74.00
             275.72,68.95 278.55,67.11 283.00,65.59
             297.35,64.29 298.57,82.72 287.00,85.55 Z
           M 353.84,72.96
           C 351.70,65.56 361.57,65.52 366.00,66.00
             366.00,66.00 365.00,71.00 365.00,71.00
             365.00,71.00 360.00,70.00 360.00,70.00
             362.11,72.44 366.18,75.21 366.92,78.04
             368.60,84.47 359.53,87.13 355.33,84.57
             353.20,83.26 352.79,80.32 358.02,80.82
             358.02,80.82 361.00,80.82 361.00,80.82
             358.92,78.60 354.61,75.59 353.84,72.96 Z
           M 157.40,82.85
           C 156.67,84.51 155.14,85.73 153.30,84.83
             150.30,83.37 150.12,69.96 152.02,67.39
             153.72,65.49 165.48,65.78 167.77,67.39
             171.62,69.52 171.52,77.97 170.85,81.94
             170.51,84.01 168.98,86.61 166.58,84.92
             164.48,83.45 165.30,79.37 164.62,76.00
             164.62,76.00 163.00,71.00 163.00,71.00
             155.27,75.51 159.56,77.98 157.40,82.85 Z
           M 188.40,82.85
           C 187.67,84.51 186.14,85.73 184.30,84.83
             181.30,83.37 181.12,69.96 183.02,67.39
             184.72,65.49 196.48,65.78 198.77,67.39
             202.62,69.52 202.52,77.97 201.85,81.94
             201.51,84.01 199.98,86.61 197.58,84.92
             195.48,83.45 196.30,79.37 195.62,76.00
             195.62,76.00 194.00,71.00 194.00,71.00
             186.27,75.51 190.56,77.98 188.40,82.85 Z
           M 210.02,84.40
           C 203.50,81.91 202.53,73.02 207.39,68.43
             209.95,66.02 212.47,66.09 215.72,66.15
             218.29,66.19 222.06,65.57 223.40,68.31
             224.30,70.15 224.03,79.44 224.00,82.00
             223.95,85.11 224.02,88.04 221.57,90.35
             219.10,92.68 214.32,93.38 211.06,92.85
             209.54,92.61 206.87,91.60 208.17,89.54
             209.72,87.07 212.29,89.65 217.00,85.00
             214.97,84.99 211.89,85.12 210.02,84.40 Z
           M 335.83,82.63
           C 334.63,84.85 330.25,85.40 328.00,85.23
             321.53,84.75 317.74,79.25 319.43,73.00
             321.21,66.40 329.64,63.77 334.72,68.43
             336.67,70.22 339.00,74.82 336.39,76.98
             334.82,78.27 329.25,77.79 325.00,79.00
             330.34,80.52 338.15,78.33 335.83,82.63 Z
           M 146.70,84.60
           C 143.97,85.83 142.52,83.22 142.15,80.96
             141.54,77.27 141.42,71.05 143.59,68.04
             152.03,65.15 149.49,83.34 146.70,84.60 Z
           M 177.70,84.60
           C 174.97,85.83 173.52,83.22 173.15,80.96
             172.54,77.27 172.42,71.05 174.59,68.04
             183.03,65.15 180.49,83.34 177.70,84.60 Z
           M 214.83,80.56
           C 218.15,80.15 220.07,72.45 214.08,70.74
             208.82,72.71 210.80,81.06 214.83,80.56 Z
           M 285.77,80.26
           C 288.86,79.35 290.94,71.04 284.10,70.74
             278.42,74.35 282.18,81.30 285.77,80.26 Z
           M 308.59,80.37
           C 311.35,79.24 312.82,71.04 306.30,70.74
             301.96,74.03 304.24,82.14 308.59,80.37 Z
           M 325.00,73.00
           C 325.00,73.00 332.00,73.00 332.00,73.00
             329.50,69.48 327.81,70.31 325.00,73.00 Z
           M 514.00,74.00
           C 514.00,74.00 514.00,81.00 514.00,81.00
             521.73,80.08 521.72,74.65 514.00,74.00 Z
           M 14.98,116.15
           C 21.35,117.08 20.05,124.20 20.00,129.00
             19.89,137.95 18.03,143.30 8.00,142.00
             8.00,142.00 12.41,133.87 12.41,133.87
             12.41,133.87 13.00,121.00 13.00,121.00
             5.95,119.78 9.35,115.33 14.98,116.15 Z
           M 180.00,135.00
           C 179.82,144.44 173.18,144.44 173.16,135.00
             173.16,135.00 173.16,119.15 173.16,119.15
             174.73,114.36 179.55,116.30 181.96,119.15
             181.96,119.15 184.67,123.00 184.67,123.00
             184.67,123.00 191.00,132.00 191.00,132.00
             191.00,132.00 190.29,125.00 190.29,125.00
             190.07,122.88 189.92,120.17 191.17,118.32
             193.10,115.46 196.44,116.27 197.46,120.06
             198.34,122.64 198.21,135.40 197.46,137.95
             195.64,143.02 191.28,143.59 187.76,139.77
             187.76,139.77 185.05,136.00 185.05,136.00
             185.05,136.00 180.00,128.00 180.00,128.00
             180.00,128.00 180.00,135.00 180.00,135.00 Z
           M 296.25,131.18
           C 301.56,139.18 291.54,141.59 286.00,142.16
             283.60,142.41 279.78,143.43 277.99,141.26
             276.40,139.33 276.95,126.15 277.00,123.00
             277.06,120.11 276.83,117.29 280.15,116.31
             287.46,114.16 304.50,120.15 293.00,128.00
             294.20,129.03 295.34,129.82 296.25,131.18 Z
           M 300.00,125.00
           C 300.00,123.01 299.77,119.19 301.02,117.60
             302.55,115.67 306.76,115.93 309.00,116.04
             317.56,116.44 324.84,121.64 323.80,131.00
             323.32,135.25 320.84,138.79 317.00,140.69
             314.20,142.07 311.03,141.98 308.00,142.00
             308.00,142.00 300.00,142.00 300.00,142.00
             300.00,142.00 300.00,125.00 300.00,125.00 Z
           M 327.00,125.00
           C 327.00,123.01 326.77,119.19 328.02,117.60
             329.55,115.67 333.76,115.93 336.00,116.04
             344.56,116.44 351.84,121.64 350.80,131.00
             350.32,135.25 347.84,138.79 344.00,140.69
             341.20,142.07 338.03,141.98 335.00,142.00
             335.00,142.00 327.00,142.00 327.00,142.00
             327.00,142.00 327.00,125.00 327.00,125.00 Z
           M 425.85,139.77
           C 425.14,141.64 423.41,142.93 421.56,141.72
             419.19,140.17 420.00,129.89 420.00,127.00
             420.00,124.56 419.77,120.47 421.17,118.43
             421.90,117.38 422.85,116.77 424.10,116.54
             428.88,115.65 430.49,120.45 431.66,124.00
             432.99,128.06 433.03,128.95 435.00,133.00
             435.33,129.29 436.95,120.99 439.51,118.32
             442.46,115.24 446.64,116.33 448.26,120.11
             448.99,121.80 448.97,124.18 449.00,126.00
             449.03,128.65 449.30,137.82 448.40,139.77
             447.32,142.13 444.67,142.94 443.02,140.64
             443.02,140.64 441.00,130.00 441.00,130.00
             440.46,133.82 439.54,141.01 434.96,142.04
             433.28,142.41 431.86,141.78 430.72,140.55
             429.10,138.80 427.06,130.85 425.85,128.00
             425.85,128.00 425.85,139.77 425.85,139.77 Z
           M 489.74,139.71
           C 488.66,137.56 488.99,128.84 489.00,126.00
             489.00,123.58 488.79,114.77 493.70,117.17
             496.68,118.62 496.00,125.18 496.00,128.00
             497.19,126.91 504.03,120.41 504.83,125.30
             505.18,127.39 502.93,129.75 502.83,132.00
             502.69,134.92 505.57,137.34 505.10,139.68
             504.00,145.22 497.04,137.23 496.00,136.00
             495.08,143.71 490.96,142.13 489.74,139.71 Z
           M 512.22,121.21
           C 510.29,123.07 505.94,121.39 508.60,117.04
             513.60,115.22 513.93,119.57 512.22,121.21 Z
           M 228.70,140.42
           C 227.63,142.20 224.78,141.96 223.14,139.69
             222.44,138.72 219.46,127.22 219.47,126.00
             219.53,122.07 225.39,114.81 227.00,124.00
             227.00,124.00 231.00,125.00 231.00,125.00
             231.00,125.00 231.00,127.00 231.00,127.00
             231.00,127.00 227.00,128.00 227.00,128.00
             227.08,131.15 229.46,139.15 228.70,140.42 Z
           M 306.00,132.00
           C 306.17,140.80 311.51,139.25 314.26,135.72
             317.36,131.75 316.54,123.54 311.94,121.02
             310.07,120.00 308.05,120.07 306.00,120.00
             306.00,120.00 306.00,132.00 306.00,132.00 Z
           M 333.00,132.00
           C 333.17,140.80 338.51,139.25 341.26,135.72
             344.36,131.75 343.54,123.54 338.94,121.02
             337.07,120.00 335.05,120.07 333.00,120.00
             333.00,120.00 333.00,132.00 333.00,132.00 Z
           M 525.70,140.42
           C 524.63,142.20 521.78,141.96 520.14,139.69
             519.44,138.72 516.46,127.22 516.47,126.00
             516.53,122.07 522.39,114.81 524.00,124.00
             524.00,124.00 528.00,125.00 528.00,125.00
             528.00,125.00 528.00,127.00 528.00,127.00
             528.00,127.00 524.00,128.00 524.00,128.00
             524.08,131.15 526.46,139.15 525.70,140.42 Z
           M 284.00,121.00
           C 284.00,121.00 284.00,127.00 284.00,127.00
             290.04,125.94 290.04,122.06 284.00,121.00 Z
           M 462.00,142.55
           C 454.76,144.33 449.33,137.98 450.14,131.00
             450.72,125.95 453.55,124.11 458.00,122.59
             472.35,121.29 473.57,139.72 462.00,142.55 Z
           M 541.00,142.55
           C 533.76,144.33 528.33,137.98 529.14,131.00
             529.72,125.95 532.55,124.11 537.00,122.59
             551.35,121.29 552.57,139.72 541.00,142.55 Z
           M 41.00,136.00
           C 40.96,137.80 41.10,140.75 39.40,141.88
             38.18,142.69 26.51,143.36 23.01,138.66
             17.98,131.90 23.40,118.92 35.00,125.00
             42.14,120.47 41.07,132.10 41.00,136.00 Z
           M 59.42,124.08
           C 61.47,125.54 60.51,129.03 59.96,131.00
             58.74,135.38 56.41,143.69 50.11,141.38
             46.50,140.06 42.75,129.60 43.78,126.15
             44.61,123.37 48.13,122.15 50.54,128.02
             50.54,128.02 53.00,134.00 53.00,134.00
             53.21,131.64 54.77,120.77 59.42,124.08 Z
           M 83.00,136.00
           C 82.96,137.80 83.10,140.75 81.40,141.88
             80.18,142.69 68.51,143.36 65.01,138.66
             59.98,131.90 65.40,118.92 77.00,125.00
             84.14,120.47 83.07,132.10 83.00,136.00 Z
           M 215.83,139.63
           C 214.63,141.85 210.25,142.40 208.00,142.23
             201.53,141.75 197.74,136.25 199.43,130.00
             201.21,123.40 209.64,120.77 214.72,125.43
             216.67,127.22 219.00,131.82 216.39,133.98
             214.82,135.27 209.25,134.79 205.00,136.00
             210.34,137.52 218.15,135.33 215.83,139.63 Z
           M 482.00,142.57
           C 480.41,142.45 478.41,141.74 477.05,140.91
             463.74,132.76 481.46,115.41 488.00,127.00
             488.00,127.00 484.02,128.32 484.02,128.32
             473.33,132.54 485.75,137.88 486.46,138.57
             487.70,139.78 487.54,140.18 488.00,141.00
             485.79,142.00 484.56,142.76 482.00,142.57 Z
           M 511.70,141.60
           C 508.97,142.83 507.52,140.22 507.15,137.96
             506.54,134.27 506.42,128.05 508.59,125.04
             517.03,122.15 514.49,140.34 511.70,141.60 Z
           M 33.89,134.00
           C 33.98,132.95 33.98,131.13 33.89,130.15
             31.50,122.75 23.29,132.74 29.43,136.98
             30.81,137.93 32.43,137.87 33.89,138.00
             33.89,138.00 33.89,134.00 33.89,134.00 Z
           M 75.89,134.00
           C 75.98,132.95 75.98,131.13 75.89,130.15
             73.50,122.75 65.29,132.74 71.43,136.98
             72.81,137.93 74.43,137.87 75.89,138.00
             75.89,138.00 75.89,134.00 75.89,134.00 Z
           M 205.00,130.00
           C 205.00,130.00 212.00,130.00 212.00,130.00
             209.50,126.48 207.81,127.31 205.00,130.00 Z
           M 460.77,137.26
           C 463.86,136.35 465.94,128.04 459.10,127.74
             453.42,131.35 457.18,138.30 460.77,137.26 Z
           M 539.77,137.26
           C 542.86,136.35 544.94,128.04 538.10,127.74
             532.42,131.35 536.18,138.30 539.77,137.26 Z
           M 284.00,131.00
           C 284.00,131.00 284.00,138.00 284.00,138.00
             291.73,137.08 291.72,131.65 284.00,131.00 Z
           M 167.70,141.34
           C 165.11,142.38 161.84,140.08 164.60,136.04
             170.54,134.00 170.61,140.18 167.70,141.34 Z
           M 8.00,182.00
           C 8.00,180.01 7.77,176.19 9.02,174.60
             10.55,172.67 14.76,172.93 17.00,173.04
             25.56,173.44 32.84,178.64 31.80,188.00
             31.32,192.25 28.84,195.79 25.00,197.69
             22.20,199.07 19.03,198.98 16.00,199.00
             16.00,199.00 8.00,199.00 8.00,199.00
             8.00,199.00 8.00,182.00 8.00,182.00 Z
           M 111.58,193.59
           C 109.50,195.49 108.70,200.42 104.44,198.41
             101.62,197.08 102.97,193.20 103.70,191.00
             105.27,186.25 108.79,171.10 115.79,173.78
             119.60,175.24 124.64,189.96 125.34,193.98
             125.84,196.86 124.46,199.53 121.21,198.34
             118.47,197.35 118.29,194.43 118.00,192.00
             115.69,192.08 113.42,191.92 111.58,193.59 Z
           M 179.00,189.00
           C 179.00,191.41 179.37,196.39 177.27,197.99
             173.00,201.24 172.05,194.51 172.00,192.00
             171.92,187.35 170.97,177.64 173.58,174.08
             180.75,172.25 179.01,184.68 179.00,189.00 Z
           M 221.22,178.21
           C 219.29,180.07 214.94,178.39 217.60,174.04
             222.60,172.22 222.93,176.57 221.22,178.21 Z
           M 272.58,193.59
           C 270.50,195.49 269.70,200.42 265.44,198.41
             262.62,197.08 263.97,193.20 264.70,191.00
             266.27,186.25 269.79,171.10 276.79,173.78
             280.60,175.24 285.64,189.96 286.34,193.98
             286.84,196.86 285.46,199.53 282.21,198.34
             279.47,197.35 279.29,194.43 279.00,192.00
             276.69,192.08 274.42,191.92 272.58,193.59 Z
           M 377.17,184.79
           C 372.91,177.53 380.17,172.42 386.98,173.11
             389.37,173.35 393.66,175.40 390.39,177.99
             388.82,179.23 384.96,178.99 383.00,179.00
             386.39,185.20 395.22,185.09 393.53,193.00
             392.37,198.42 386.99,200.38 382.00,199.89
             379.96,199.69 375.50,198.36 377.17,195.36
             378.18,193.55 384.64,193.56 387.00,193.00
             387.00,193.00 387.00,191.00 387.00,191.00
             383.89,189.66 378.94,187.80 377.17,184.79 Z
           M 438.22,178.21
           C 436.29,180.07 431.94,178.39 434.60,174.04
             439.60,172.22 439.93,176.57 438.22,178.21 Z
           M 521.60,174.02
           C 523.53,172.50 536.47,172.50 538.40,174.02
             539.79,175.11 539.73,176.47 540.00,178.00
             540.00,178.00 533.91,178.00 533.91,178.00
             533.91,178.00 533.91,193.98 533.91,193.98
             533.51,196.15 532.72,199.14 529.99,199.14
             527.17,199.14 526.36,196.23 526.05,193.98
             526.05,193.98 526.05,178.00 526.05,178.00
             526.05,178.00 520.00,178.00 520.00,178.00
             520.27,176.47 520.21,175.11 521.60,174.02 Z
           M 543.00,182.00
           C 543.00,180.01 542.77,176.19 544.02,174.60
             545.55,172.67 549.76,172.93 552.00,173.04
             560.56,173.44 567.84,178.64 566.80,188.00
             566.32,192.25 563.84,195.79 560.00,197.69
             557.20,199.07 554.03,198.98 551.00,199.00
             551.00,199.00 543.00,199.00 543.00,199.00
             543.00,199.00 543.00,182.00 543.00,182.00 Z
           M 570.00,182.00
           C 570.00,180.01 569.77,176.19 571.02,174.60
             572.55,172.67 576.76,172.93 579.00,173.04
             587.56,173.44 594.84,178.64 593.80,188.00
             593.32,192.25 590.84,195.79 587.00,197.69
             584.20,199.07 581.03,198.98 578.00,199.00
             578.00,199.00 570.00,199.00 570.00,199.00
             570.00,199.00 570.00,182.00 570.00,182.00 Z
           M 14.00,189.00
           C 14.17,197.80 19.51,196.25 22.26,192.72
             25.36,188.75 24.54,180.54 19.94,178.02
             18.07,177.00 16.05,177.07 14.00,177.00
             14.00,177.00 14.00,189.00 14.00,189.00 Z
           M 65.70,197.42
           C 64.63,199.20 61.78,198.96 60.14,196.69
             59.44,195.72 56.46,184.22 56.47,183.00
             56.53,179.07 62.39,171.81 64.00,181.00
             64.00,181.00 68.00,182.00 68.00,182.00
             68.00,182.00 68.00,184.00 68.00,184.00
             68.00,184.00 64.00,185.00 64.00,185.00
             64.08,188.15 66.46,196.15 65.70,197.42 Z
           M 549.00,189.00
           C 549.17,197.80 554.51,196.25 557.26,192.72
             560.36,188.75 559.54,180.54 554.94,178.02
             553.07,177.00 551.05,177.07 549.00,177.00
             549.00,177.00 549.00,189.00 549.00,189.00 Z
           M 576.00,189.00
           C 576.17,197.80 581.51,196.25 584.26,192.72
             587.36,188.75 586.54,180.54 581.94,178.02
             580.07,177.00 578.05,177.07 576.00,177.00
             576.00,177.00 576.00,189.00 576.00,189.00 Z
           M 200.84,186.96
           C 198.70,179.56 208.57,179.52 213.00,180.00
             213.00,180.00 212.00,185.00 212.00,185.00
             212.00,185.00 207.00,184.00 207.00,184.00
             209.11,186.44 213.18,189.21 213.92,192.04
             215.60,198.47 206.53,201.13 202.33,198.57
             200.20,197.26 199.79,194.32 205.02,194.82
             205.02,194.82 208.00,194.82 208.00,194.82
             205.92,192.60 201.61,189.59 200.84,186.96 Z
           M 225.84,186.96
           C 223.70,179.56 233.57,179.52 238.00,180.00
             238.00,180.00 237.00,185.00 237.00,185.00
             237.00,185.00 232.00,184.00 232.00,184.00
             234.11,186.44 238.18,189.21 238.92,192.04
             240.60,198.47 231.53,201.13 227.33,198.57
             225.20,197.26 224.79,194.32 230.02,194.82
             230.02,194.82 233.00,194.82 233.00,194.82
             230.92,192.60 226.61,189.59 225.84,186.96 Z
           M 54.00,193.00
           C 53.96,194.80 54.10,197.75 52.40,198.88
             51.18,199.69 39.51,200.36 36.01,195.66
             30.98,188.90 36.40,175.92 48.00,182.00
             55.14,177.47 54.07,189.10 54.00,193.00 Z
           M 89.00,193.00
           C 88.96,194.80 89.10,197.75 87.40,198.88
             86.18,199.69 74.51,200.36 71.01,195.66
             65.98,188.90 71.40,175.92 83.00,182.00
             90.14,177.47 89.07,189.10 89.00,193.00 Z
           M 111.00,188.00
           C 111.00,188.00 117.00,188.00 117.00,188.00
             117.00,188.00 115.00,181.00 115.00,181.00
             115.00,181.00 111.00,188.00 111.00,188.00 Z
           M 134.40,196.85
           C 133.67,198.51 132.14,199.73 130.30,198.83
             127.30,197.37 127.12,183.96 129.02,181.39
             130.72,179.49 142.48,179.78 144.77,181.39
             148.62,183.52 148.52,191.97 147.85,195.94
             147.51,198.01 145.98,200.61 143.58,198.92
             141.48,197.45 142.30,193.37 141.62,190.00
             141.62,190.00 140.00,185.00 140.00,185.00
             132.27,189.51 136.56,191.98 134.40,196.85 Z
           M 170.00,193.00
           C 169.96,194.80 170.10,197.75 168.40,198.88
             167.18,199.69 155.51,200.36 152.01,195.66
             146.98,188.90 152.40,175.92 164.00,182.00
             171.14,177.47 170.07,189.10 170.00,193.00 Z
           M 194.38,180.62
           C 198.28,178.98 198.17,183.75 197.61,186.00
             196.59,190.08 192.59,202.89 189.61,205.36
             187.79,206.72 182.68,207.90 181.17,205.36
             179.52,202.78 184.53,201.69 184.67,196.98
             184.79,192.86 180.53,186.35 180.81,183.13
             181.07,180.08 184.24,179.62 186.15,181.60
             187.57,183.07 189.11,189.59 190.00,192.00
             190.55,189.29 191.68,181.76 194.38,180.62 Z
           M 272.00,188.00
           C 272.00,188.00 278.00,188.00 278.00,188.00
             278.00,188.00 276.00,181.00 276.00,181.00
             276.00,181.00 272.00,188.00 272.00,188.00 Z
           M 294.06,184.93
           C 292.55,184.60 289.86,183.60 291.17,181.54
             292.16,179.97 307.50,177.19 304.34,185.02
             303.89,186.13 302.66,187.99 301.96,189.00
             301.96,189.00 298.00,194.00 298.00,194.00
             298.00,194.00 306.00,195.00 306.00,195.00
             305.56,196.36 305.56,197.28 304.41,198.40
             302.15,200.60 291.67,200.99 290.25,197.69
             288.92,194.61 295.12,187.43 297.00,184.93
             297.00,184.93 294.06,184.93 294.06,184.93 Z
           M 316.30,192.66
           C 322.90,195.00 318.90,180.63 324.00,180.63
             325.98,180.63 326.58,182.45 326.85,184.06
             327.26,186.43 327.37,196.68 325.98,198.38
             324.39,200.33 321.86,198.99 318.83,199.02
             316.22,199.43 314.68,200.16 312.05,199.02
             306.51,195.97 305.38,185.71 308.72,181.01
             317.00,177.97 311.58,191.00 316.30,192.66 Z
           M 336.31,190.04
           C 335.64,192.50 336.55,197.16 333.59,198.37
             331.95,199.04 330.34,198.20 329.60,196.69
             328.21,193.83 328.11,181.62 332.15,180.89
             333.78,180.60 334.69,181.41 336.00,182.00
             336.00,182.00 342.00,180.00 342.00,180.00
             342.00,180.00 342.00,185.00 342.00,185.00
             339.00,186.06 337.23,186.66 336.31,190.04 Z
           M 360.83,196.63
           C 359.63,198.85 355.25,199.40 353.00,199.23
             346.53,198.75 342.74,193.25 344.43,187.00
             346.21,180.40 354.64,177.77 359.72,182.43
             361.67,184.22 364.00,188.82 361.39,190.98
             359.82,192.27 354.25,191.79 350.00,193.00
             355.34,194.52 363.15,192.33 360.83,196.63 Z
           M 411.84,181.60
           C 417.50,185.59 416.92,194.56 411.84,197.69
             409.27,199.22 405.86,198.99 403.00,199.00
             402.97,201.51 402.94,208.69 398.30,206.60
             395.72,205.44 396.02,201.33 396.00,199.00
             396.00,199.00 396.00,180.00 396.00,180.00
             400.20,180.00 408.55,179.22 411.84,181.60 Z
           M 425.31,190.04
           C 424.64,192.50 425.55,197.16 422.59,198.37
             420.95,199.04 419.34,198.20 418.60,196.69
             417.21,193.83 417.11,181.62 421.15,180.89
             422.78,180.60 423.69,181.41 425.00,182.00
             425.00,182.00 431.00,180.00 431.00,180.00
             431.00,180.00 431.00,185.00 431.00,185.00
             428.00,186.06 426.23,186.66 425.31,190.04 Z
           M 448.40,196.85
           C 447.67,198.51 446.14,199.73 444.30,198.83
             441.30,197.37 441.12,183.96 443.02,181.39
             444.72,179.49 456.48,179.78 458.77,181.39
             462.62,183.52 462.52,191.97 461.85,195.94
             461.51,198.01 459.98,200.61 457.58,198.92
             455.48,197.45 456.30,193.37 455.62,190.00
             455.62,190.00 454.00,185.00 454.00,185.00
             446.27,189.51 450.56,191.98 448.40,196.85 Z
           M 470.02,198.40
           C 463.50,195.91 462.53,187.02 467.39,182.43
             469.95,180.02 472.47,180.09 475.72,180.15
             478.29,180.19 482.06,179.57 483.40,182.31
             484.30,184.15 484.03,193.44 484.00,196.00
             483.95,199.11 484.02,202.04 481.57,204.35
             479.10,206.68 474.32,207.38 471.06,206.85
             469.54,206.61 466.87,205.60 468.17,203.54
             469.72,201.07 472.29,203.65 477.00,199.00
             474.97,198.99 471.89,199.12 470.02,198.40 Z
           M 220.70,198.60
           C 217.97,199.83 216.52,197.22 216.15,194.96
             215.54,191.27 215.42,185.05 217.59,182.04
             226.03,179.15 223.49,197.34 220.70,198.60 Z
           M 437.70,198.60
           C 434.97,199.83 433.52,197.22 433.15,194.96
             432.54,191.27 432.42,185.05 434.59,182.04
             443.03,179.15 440.49,197.34 437.70,198.60 Z
           M 46.89,191.00
           C 46.98,189.95 46.98,188.13 46.89,187.15
             44.50,179.75 36.29,189.74 42.43,193.98
             43.81,194.93 45.43,194.87 46.89,195.00
             46.89,195.00 46.89,191.00 46.89,191.00 Z
           M 81.89,191.00
           C 81.98,189.95 81.98,188.13 81.89,187.15
             79.50,179.75 71.29,189.74 77.43,193.98
             78.81,194.93 80.43,194.87 81.89,195.00
             81.89,195.00 81.89,191.00 81.89,191.00 Z
           M 162.89,191.00
           C 162.98,189.95 162.98,188.13 162.89,187.15
             160.50,179.75 152.29,189.74 158.43,193.98
             159.81,194.93 161.43,194.87 162.89,195.00
             162.89,195.00 162.89,191.00 162.89,191.00 Z
           M 350.00,187.00
           C 350.00,187.00 357.00,187.00 357.00,187.00
             354.50,183.48 352.81,184.31 350.00,187.00 Z
           M 406.91,194.26
           C 410.58,193.22 411.52,185.04 405.27,184.74
             401.30,187.80 402.86,195.40 406.91,194.26 Z
           M 474.83,194.56
           C 478.15,194.15 480.07,186.45 474.08,184.74
             468.82,186.71 470.80,195.06 474.83,194.56 Z
           M 138.96,238.17
           C 145.12,241.46 145.43,250.45 140.66,254.28
             138.13,256.30 135.05,256.29 132.00,256.48
             130.08,256.59 127.20,257.04 125.57,255.81
             123.13,253.97 123.94,240.42 124.00,237.00
             124.05,234.60 124.52,228.12 128.70,230.17
             131.07,231.32 130.92,234.80 131.00,237.00
             133.67,237.03 136.53,236.88 138.96,238.17 Z
           M 279.96,238.17
           C 286.12,241.46 286.43,250.45 281.66,254.28
             279.13,256.30 276.05,256.29 273.00,256.48
             271.08,256.59 268.20,257.04 266.57,255.81
             264.13,253.97 264.94,240.42 265.00,237.00
             265.05,234.60 265.52,228.12 269.70,230.17
             272.07,231.32 271.92,234.80 272.00,237.00
             274.67,237.03 277.53,236.88 279.96,238.17 Z
           M 399.96,238.17
           C 406.12,241.46 406.43,250.45 401.66,254.28
             399.13,256.30 396.05,256.29 393.00,256.48
             391.08,256.59 388.20,257.04 386.57,255.81
             384.13,253.97 384.94,240.42 385.00,237.00
             385.05,234.60 385.52,228.12 389.70,230.17
             392.07,231.32 391.92,234.80 392.00,237.00
             394.67,237.03 397.53,236.88 399.96,238.17 Z
           M 501.96,247.00
           C 501.96,247.00 501.96,251.00 501.96,251.00
             501.42,256.98 497.78,256.86 496.57,254.55
             495.61,252.71 496.86,240.36 491.27,243.17
             487.65,244.99 490.06,251.66 487.98,254.55
             486.30,256.89 482.58,256.99 482.03,251.00
             482.03,251.00 482.03,247.00 482.03,247.00
             481.99,244.13 481.68,234.23 482.60,232.15
             483.08,231.05 483.83,230.11 485.09,229.91
             489.18,229.27 488.97,235.54 489.00,238.00
             497.09,236.06 501.72,238.01 501.96,247.00 Z
           M 541.02,230.62
           C 544.69,226.12 545.96,233.87 546.00,236.00
             546.00,236.00 546.00,250.00 546.00,250.00
             545.97,251.58 546.03,254.10 544.98,255.39
             543.47,257.22 540.11,256.46 538.00,256.36
             535.89,256.27 534.03,256.41 532.02,255.53
             526.02,252.90 524.50,245.17 528.65,240.23
             530.11,238.49 531.77,237.58 534.00,237.24
             536.31,236.89 537.85,237.39 540.00,238.00
             540.01,236.06 539.77,232.15 541.02,230.62 Z
           M 25.84,230.62
           C 27.32,231.26 28.63,232.83 27.26,234.33
             25.89,235.83 23.06,235.01 21.00,235.68
             17.16,236.93 14.50,240.97 15.45,245.00
             16.27,248.51 18.58,250.26 22.00,250.86
             23.70,251.16 26.78,250.84 27.83,252.54
             28.84,254.16 27.19,255.52 25.85,255.88
             23.20,257.27 18.67,256.57 16.00,255.88
             5.88,252.19 3.74,236.23 17.00,230.62
             19.56,230.12 23.35,229.48 25.84,230.62 Z
           M 201.58,250.59
           C 199.50,252.49 198.70,257.42 194.44,255.41
             191.62,254.08 192.97,250.20 193.70,248.00
             195.27,243.25 198.79,228.10 205.79,230.78
             209.60,232.24 214.64,246.96 215.34,250.98
             215.84,253.86 214.46,256.53 211.21,255.34
             208.47,254.35 208.29,251.43 208.00,249.00
             205.69,249.08 203.42,248.92 201.58,250.59 Z
           M 261.22,235.21
           C 259.29,237.07 254.94,235.39 257.60,231.04
             262.60,229.22 262.93,233.57 261.22,235.21 Z
           M 294.00,246.00
           C 294.00,248.41 294.37,253.39 292.27,254.99
             288.00,258.24 287.05,251.51 287.00,249.00
             286.92,244.35 285.97,234.64 288.58,231.08
             295.75,229.25 294.01,241.68 294.00,246.00 Z
           M 337.05,256.16
           C 332.76,254.88 328.43,241.31 327.53,237.00
             326.14,230.35 330.17,229.59 332.45,231.62
             334.05,233.04 334.99,236.92 335.58,239.00
             336.70,242.99 336.87,244.28 339.00,248.00
             339.18,244.24 340.62,228.43 346.79,230.66
             350.86,232.12 350.88,241.40 354.00,248.00
             354.29,244.83 356.42,234.69 358.14,232.31
             360.09,229.62 363.77,229.68 364.39,233.13
             364.84,235.66 359.20,251.38 357.59,253.77
             356.29,255.70 354.45,256.99 352.04,256.29
             347.73,255.06 346.61,247.80 345.00,244.00
             344.65,248.21 343.58,258.10 337.05,256.16 Z
           M 424.85,253.77
           C 424.14,255.64 422.41,256.93 420.56,255.72
             418.19,254.17 419.00,243.89 419.00,241.00
             419.00,238.56 418.77,234.47 420.17,232.43
             420.90,231.38 421.85,230.77 423.10,230.54
             427.88,229.65 429.49,234.45 430.66,238.00
             431.99,242.06 432.03,242.95 434.00,247.00
             434.33,243.29 435.95,234.99 438.51,232.32
             441.46,229.24 445.64,230.33 447.26,234.11
             447.99,235.80 447.97,238.18 448.00,240.00
             448.03,242.65 448.30,251.82 447.40,253.77
             446.32,256.13 443.67,256.94 442.02,254.64
             442.02,254.64 440.00,244.00 440.00,244.00
             439.46,247.82 438.54,255.01 433.96,256.04
             432.28,256.41 430.86,255.78 429.72,254.55
             428.10,252.80 426.06,244.85 424.85,242.00
             424.85,242.00 424.85,253.77 424.85,253.77 Z
           M 478.70,254.42
           C 477.63,256.20 474.78,255.96 473.14,253.69
             472.44,252.72 469.46,241.22 469.47,240.00
             469.53,236.07 475.39,228.81 477.00,238.00
             477.00,238.00 481.00,239.00 481.00,239.00
             481.00,239.00 481.00,241.00 481.00,241.00
             481.00,241.00 477.00,242.00 477.00,242.00
             477.08,245.15 479.46,253.15 478.70,254.42 Z
           M 103.01,249.00
           C 102.93,247.30 103.08,243.12 100.83,242.62
             99.34,242.29 98.63,243.96 98.31,245.08
             97.69,247.31 98.38,251.65 97.40,253.76
             96.02,256.73 91.62,257.30 91.03,250.98
             91.03,250.98 91.03,246.00 91.03,246.00
             91.00,244.29 90.87,240.79 91.60,239.31
             92.83,236.81 100.41,236.34 102.99,236.58
             102.99,236.58 108.42,237.79 108.42,237.79
             111.35,237.77 115.23,234.37 119.57,239.23
             122.01,241.96 123.62,252.43 120.40,254.98
             119.17,255.96 117.47,255.88 116.00,256.00
             116.00,253.40 116.98,243.04 113.00,243.04
             109.02,243.04 110.00,253.40 110.00,256.00
             103.92,256.40 103.30,254.84 103.01,249.00 Z
           M 240.84,243.96
           C 238.70,236.56 248.57,236.52 253.00,237.00
             253.00,237.00 252.00,242.00 252.00,242.00
             252.00,242.00 247.00,241.00 247.00,241.00
             249.11,243.44 253.18,246.21 253.92,249.04
             255.60,255.47 246.53,258.13 242.33,255.57
             240.20,254.26 239.79,251.32 245.02,251.82
             245.02,251.82 248.00,251.82 248.00,251.82
             245.92,249.60 241.61,246.59 240.84,243.96 Z
           M 516.00,256.55
           C 508.76,258.33 503.33,251.98 504.14,245.00
             504.72,239.95 507.55,238.11 512.00,236.59
             526.35,235.29 527.57,253.72 516.00,256.55 Z
           M 548.84,243.96
           C 546.70,236.56 556.57,236.52 561.00,237.00
             561.00,237.00 560.00,242.00 560.00,242.00
             560.00,242.00 555.00,241.00 555.00,241.00
             557.11,243.44 561.18,246.21 561.92,249.04
             563.60,255.47 554.53,258.13 550.33,255.57
             548.20,254.26 547.79,251.32 553.02,251.82
             553.02,251.82 556.00,251.82 556.00,251.82
             553.92,249.60 549.61,246.59 548.84,243.96 Z
           M 39.30,249.66
           C 45.90,252.00 41.90,237.63 47.00,237.63
             48.98,237.63 49.58,239.45 49.85,241.06
             50.26,243.43 50.37,253.68 48.98,255.38
             47.39,257.33 44.86,255.99 41.83,256.02
             39.22,256.43 37.68,257.16 35.05,256.02
             29.51,252.97 28.38,242.71 31.72,238.01
             40.00,234.97 34.58,248.00 39.30,249.66 Z
           M 62.00,256.57
           C 60.41,256.45 58.41,255.74 57.05,254.91
             43.74,246.76 61.46,229.41 68.00,241.00
             68.00,241.00 64.02,242.32 64.02,242.32
             53.33,246.54 65.75,251.88 66.46,252.57
             67.70,253.78 67.54,254.18 68.00,255.00
             65.79,256.00 64.56,256.76 62.00,256.57 Z
           M 78.30,249.66
           C 84.90,252.00 80.90,237.63 86.00,237.63
             87.98,237.63 88.58,239.45 88.85,241.06
             89.26,243.43 89.37,253.68 87.98,255.38
             86.39,257.33 83.86,255.99 80.83,256.02
             78.22,256.43 76.68,257.16 74.05,256.02
             68.51,252.97 67.38,242.71 70.72,238.01
             79.00,234.97 73.58,248.00 78.30,249.66 Z
           M 162.83,253.63
           C 161.63,255.85 157.25,256.40 155.00,256.23
             148.53,255.75 144.74,250.25 146.43,244.00
             148.21,237.40 156.64,234.77 161.72,239.43
             163.67,241.22 166.00,245.82 163.39,247.98
             161.82,249.27 156.25,248.79 152.00,250.00
             157.34,251.52 165.15,249.33 162.83,253.63 Z
           M 173.31,247.04
           C 172.64,249.50 173.55,254.16 170.59,255.37
             168.95,256.04 167.34,255.20 166.60,253.69
             165.21,250.83 165.11,238.62 169.15,237.89
             170.78,237.60 171.69,238.41 173.00,239.00
             173.00,239.00 179.00,237.00 179.00,237.00
             179.00,237.00 179.00,242.00 179.00,242.00
             176.00,243.06 174.23,243.66 173.31,247.04 Z
           M 201.00,245.00
           C 201.00,245.00 207.00,245.00 207.00,245.00
             207.00,245.00 205.00,238.00 205.00,238.00
             205.00,238.00 201.00,245.00 201.00,245.00 Z
           M 224.40,253.85
           C 223.67,255.51 222.14,256.73 220.30,255.83
             217.30,254.37 217.12,240.96 219.02,238.39
             220.72,236.49 232.48,236.78 234.77,238.39
             238.62,240.52 238.52,248.97 237.85,252.94
             237.51,255.01 235.98,257.61 233.58,255.92
             231.48,254.45 232.30,250.37 231.62,247.00
             231.62,247.00 230.00,242.00 230.00,242.00
             222.27,246.51 226.56,248.98 224.40,253.85 Z
           M 311.83,253.63
           C 310.63,255.85 306.25,256.40 304.00,256.23
             297.53,255.75 293.74,250.25 295.43,244.00
             297.21,237.40 305.64,234.77 310.72,239.43
             312.67,241.22 315.00,245.82 312.39,247.98
             310.82,249.27 305.25,248.79 301.00,250.00
             306.34,251.52 314.15,249.33 311.83,253.63 Z
           M 381.83,253.63
           C 380.63,255.85 376.25,256.40 374.00,256.23
             367.53,255.75 363.74,250.25 365.43,244.00
             367.21,237.40 375.64,234.77 380.72,239.43
             382.67,241.22 385.00,245.82 382.39,247.98
             380.82,249.27 375.25,248.79 371.00,250.00
             376.34,251.52 384.15,249.33 381.83,253.63 Z
           M 465.83,253.63
           C 464.63,255.85 460.25,256.40 458.00,256.23
             451.53,255.75 447.74,250.25 449.43,244.00
             451.21,237.40 459.64,234.77 464.72,239.43
             466.67,241.22 469.00,245.82 466.39,247.98
             464.82,249.27 459.25,248.79 455.00,250.00
             460.34,251.52 468.15,249.33 465.83,253.63 Z
           M 260.70,255.60
           C 257.97,256.83 256.52,254.22 256.15,251.96
             255.54,248.27 255.42,242.05 257.59,239.04
             266.03,236.15 263.49,254.34 260.70,255.60 Z
           M 134.90,251.60
           C 138.55,250.08 139.76,242.04 133.30,241.74
             129.43,244.67 130.43,253.46 134.90,251.60 Z
           M 152.00,244.00
           C 152.00,244.00 159.00,244.00 159.00,244.00
             156.50,240.48 154.81,241.31 152.00,244.00 Z
           M 275.90,251.60
           C 279.55,250.08 280.76,242.04 274.30,241.74
             270.43,244.67 271.43,253.46 275.90,251.60 Z
           M 301.00,244.00
           C 301.00,244.00 308.00,244.00 308.00,244.00
             305.50,240.48 303.81,241.31 301.00,244.00 Z
           M 371.00,244.00
           C 371.00,244.00 378.00,244.00 378.00,244.00
             375.50,240.48 373.81,241.31 371.00,244.00 Z
           M 395.90,251.60
           C 399.55,250.08 400.76,242.04 394.30,241.74
             390.43,244.67 391.43,253.46 395.90,251.60 Z
           M 455.00,244.00
           C 455.00,244.00 462.00,244.00 462.00,244.00
             459.50,240.48 457.81,241.31 455.00,244.00 Z
           M 514.77,251.26
           C 517.86,250.35 519.94,242.04 513.10,241.74
             507.42,245.35 511.18,252.30 514.77,251.26 Z
           M 537.59,251.37
           C 540.35,250.24 541.82,242.04 535.30,241.74
             530.96,245.03 533.24,253.14 537.59,251.37 Z
           M 15.00,306.00
           C 14.82,315.44 8.18,315.44 8.16,306.00
             8.16,306.00 8.16,290.15 8.16,290.15
             9.73,285.36 14.55,287.30 16.96,290.15
             16.96,290.15 19.67,294.00 19.67,294.00
             19.67,294.00 26.00,303.00 26.00,303.00
             26.00,303.00 25.29,296.00 25.29,296.00
             25.07,293.88 24.92,291.17 26.17,289.32
             28.10,286.46 31.44,287.27 32.46,291.06
             33.34,293.64 33.21,306.40 32.46,308.95
             30.64,314.02 26.28,314.59 22.76,310.77
             22.76,310.77 20.05,307.00 20.05,307.00
             20.05,307.00 15.00,299.00 15.00,299.00
             15.00,299.00 15.00,306.00 15.00,306.00 Z
           M 58.17,298.79
           C 53.91,291.53 61.17,286.42 67.98,287.11
             70.37,287.35 74.66,289.40 71.39,291.99
             69.82,293.23 65.96,292.99 64.00,293.00
             67.39,299.20 76.22,299.09 74.53,307.00
             73.37,312.42 67.99,314.38 63.00,313.89
             60.96,313.69 56.50,312.36 58.17,309.36
             59.18,307.55 65.64,307.56 68.00,307.00
             68.00,307.00 68.00,305.00 68.00,305.00
             64.89,303.66 59.94,301.80 58.17,298.79 Z
           M 105.82,301.00
           C 105.81,304.95 104.44,306.65 102.99,310.00
             101.14,314.24 102.26,317.59 99.70,318.75
             96.70,320.11 95.05,316.00 91.87,314.56
             89.43,313.45 85.08,313.69 81.23,309.78
             75.46,303.93 76.59,292.04 87.00,287.65
             96.74,285.64 105.82,289.92 105.82,301.00 Z
           M 109.02,311.40
           C 107.40,309.35 107.95,297.17 108.00,294.00
             108.03,292.43 107.97,289.89 109.02,288.62
             109.73,287.75 110.75,287.43 111.83,287.74
             115.53,288.82 115.06,295.08 114.72,298.00
             114.17,302.65 114.01,303.15 114.00,308.00
             121.15,307.68 124.40,305.49 125.00,313.00
             121.71,313.00 110.98,313.88 109.02,311.40 Z
           M 162.17,298.79
           C 157.91,291.53 165.17,286.42 171.98,287.11
             174.37,287.35 178.66,289.40 175.39,291.99
             173.82,293.23 169.96,292.99 168.00,293.00
             171.39,299.20 180.22,299.09 178.53,307.00
             177.37,312.42 171.99,314.38 167.00,313.89
             164.96,313.69 160.50,312.36 162.17,309.36
             163.18,307.55 169.64,307.56 172.00,307.00
             172.00,307.00 172.00,305.00 172.00,305.00
             168.89,303.66 163.94,301.80 162.17,298.79 Z
           M 260.22,292.21
           C 258.29,294.07 253.94,292.39 256.60,288.04
             261.60,286.22 261.93,290.57 260.22,292.21 Z
           M 92.98,309.29
           C 100.00,307.40 101.33,290.39 90.04,291.64
             80.75,296.89 85.52,311.31 92.98,309.29 Z
           M 273.70,311.42
           C 272.63,313.20 269.78,312.96 268.14,310.69
             267.44,309.72 264.46,298.22 264.47,297.00
             264.53,293.07 270.39,285.81 272.00,295.00
             272.00,295.00 276.00,296.00 276.00,296.00
             276.00,296.00 276.00,298.00 276.00,298.00
             276.00,298.00 272.00,299.00 272.00,299.00
             272.08,302.15 274.46,310.15 273.70,311.42 Z
           M 46.00,313.55
           C 38.76,315.33 33.33,308.98 34.14,302.00
             34.72,296.95 37.55,295.11 42.00,293.59
             56.35,292.29 57.57,310.72 46.00,313.55 Z
           M 197.83,310.63
           C 196.63,312.85 192.25,313.40 190.00,313.23
             183.53,312.75 179.74,307.25 181.43,301.00
             183.21,294.40 191.64,291.77 196.72,296.43
             198.67,298.22 201.00,302.82 198.39,304.98
             196.82,306.27 191.25,305.79 187.00,307.00
             192.34,308.52 200.15,306.33 197.83,310.63 Z
           M 211.00,313.57
           C 209.41,313.45 207.41,312.74 206.05,311.91
             192.74,303.76 210.46,286.41 217.00,298.00
             217.00,298.00 213.02,299.32 213.02,299.32
             202.33,303.54 214.75,308.88 215.46,309.57
             216.70,310.78 216.54,311.18 217.00,312.00
             214.79,313.00 213.56,313.76 211.00,313.57 Z
           M 227.30,306.66
           C 233.90,309.00 229.90,294.63 235.00,294.63
             236.98,294.63 237.58,296.45 237.85,298.06
             238.26,300.43 238.37,310.68 236.98,312.38
             235.39,314.33 232.86,312.99 229.83,313.02
             227.22,313.43 225.68,314.16 223.05,313.02
             217.51,309.97 216.38,299.71 219.72,295.01
             228.00,291.97 222.58,305.00 227.30,306.66 Z
           M 247.31,304.04
           C 246.64,306.50 247.55,311.16 244.59,312.37
             242.95,313.04 241.34,312.20 240.60,310.69
             239.21,307.83 239.11,295.62 243.15,294.89
             244.78,294.60 245.69,295.41 247.00,296.00
             247.00,296.00 253.00,294.00 253.00,294.00
             253.00,294.00 253.00,299.00 253.00,299.00
             250.00,300.06 248.23,300.66 247.31,304.04 Z
           M 291.38,294.62
           C 295.28,292.98 295.17,297.75 294.61,300.00
             293.59,304.08 289.59,316.89 286.61,319.36
             284.79,320.72 279.68,321.90 278.17,319.36
             276.52,316.78 281.53,315.69 281.67,310.98
             281.79,306.86 277.53,300.35 277.81,297.13
             278.07,294.08 281.24,293.62 283.15,295.60
             284.57,297.07 286.11,303.59 287.00,306.00
             287.55,303.29 288.68,295.76 291.38,294.62 Z
           M 259.70,312.60
           C 256.97,313.83 255.52,311.22 255.15,308.96
             254.54,305.27 254.42,299.05 256.59,296.04
             265.03,293.15 262.49,311.34 259.70,312.60 Z
           M 44.77,308.26
           C 47.86,307.35 49.94,299.04 43.10,298.74
             37.42,302.35 41.18,309.30 44.77,308.26 Z
           M 187.00,301.00
           C 187.00,301.00 194.00,301.00 194.00,301.00
             191.50,297.48 189.81,298.31 187.00,301.00 Z" />
</svg>
