<?xml version="1.0" encoding="UTF-8" standalone="no"?>
<!DOCTYPE svg PUBLIC "-//W3C//DTD SVG 20010904//EN"
              "http://www.w3.org/TR/2001/REC-SVG-20010904/DTD/svg10.dtd">

<svg xmlns="http://www.w3.org/2000/svg"
     width="2.08333in" height="1.38889in"
     viewBox="0 0 150 100">
  <path id="Selection"
        fill="#0072e5" stroke="black" stroke-width="0"
        d="M 70.90,12.39
           C 77.33,17.92 78.45,27.09 78.96,35.00
             80.12,47.97 80.29,55.97 78.96,69.00
             78.15,75.15 76.37,82.35 71.81,86.79
             63.98,94.42 49.18,93.12 39.00,93.00
             31.39,92.91 23.43,91.23 18.42,84.96
             13.71,79.06 13.57,71.10 12.82,64.00
             11.48,53.70 12.09,44.26 12.82,34.00
             13.42,27.71 14.33,20.16 18.42,15.04
             22.30,10.17 27.16,8.57 33.00,7.44
             42.81,6.18 63.16,5.75 70.90,12.39 Z
           M 43.00,18.00
           C 39.66,18.04 32.14,18.48 29.65,20.74
             26.89,23.24 27.02,27.59 27.00,31.00
             27.00,31.00 27.00,82.00 27.00,82.00
             27.00,82.00 48.00,82.00 48.00,82.00
             51.71,81.98 58.82,81.73 61.77,79.41
             65.14,76.76 64.98,72.85 65.00,69.00
             65.00,69.00 65.00,18.00 65.00,18.00
             65.00,18.00 43.00,18.00 43.00,18.00 Z
           M 102.00,27.47
           C 109.73,24.33 129.71,22.63 135.26,30.21
             137.15,32.79 136.98,35.96 137.00,39.00
             137.00,39.00 137.00,92.00 137.00,92.00
             137.00,92.00 123.00,92.00 123.00,92.00
             123.00,92.00 123.00,36.00 123.00,36.00
             117.53,36.00 104.45,35.26 100.31,38.73
             97.59,41.02 98.01,44.81 98.00,48.00
             98.00,48.00 98.00,92.00 98.00,92.00
             98.00,92.00 83.00,92.00 83.00,92.00
             83.00,92.00 83.00,26.00 83.00,26.00
             89.30,26.02 91.00,25.43 93.00,32.00
             93.00,32.00 102.00,27.47 102.00,27.47 Z" />
</svg>
